%TF.GenerationSoftware,KiCad,Pcbnew,10.0.5*%
%TF.CreationDate,2026-08-13T16:38:37+05:30*%
%TF.ProjectId,Pokeyboardy,506f6b65-7962-46f6-9172-64792e6b6963,rev?*%
%TF.SameCoordinates,Original*%
%TF.FileFunction,Legend,Bot*%
%TF.FilePolarity,Positive*%
%FSLAX46Y46*%
G04 Gerber Fmt 4.6, Leading zero omitted, Abs format (unit mm)*
G04 Created by KiCad (PCBNEW 10.0.5) date 2026-08-13 16:38:37*
%MOMM*%
%LPD*%
G01*
G04 APERTURE LIST*
%ADD10C,0.150000*%
%ADD11C,0.120000*%
G04 APERTURE END LIST*
D10*
X143613094Y-70894819D02*
X143613094Y-69894819D01*
X143613094Y-69894819D02*
X143374999Y-69894819D01*
X143374999Y-69894819D02*
X143232142Y-69942438D01*
X143232142Y-69942438D02*
X143136904Y-70037676D01*
X143136904Y-70037676D02*
X143089285Y-70132914D01*
X143089285Y-70132914D02*
X143041666Y-70323390D01*
X143041666Y-70323390D02*
X143041666Y-70466247D01*
X143041666Y-70466247D02*
X143089285Y-70656723D01*
X143089285Y-70656723D02*
X143136904Y-70751961D01*
X143136904Y-70751961D02*
X143232142Y-70847200D01*
X143232142Y-70847200D02*
X143374999Y-70894819D01*
X143374999Y-70894819D02*
X143613094Y-70894819D01*
X142565475Y-70894819D02*
X142374999Y-70894819D01*
X142374999Y-70894819D02*
X142279761Y-70847200D01*
X142279761Y-70847200D02*
X142232142Y-70799580D01*
X142232142Y-70799580D02*
X142136904Y-70656723D01*
X142136904Y-70656723D02*
X142089285Y-70466247D01*
X142089285Y-70466247D02*
X142089285Y-70085295D01*
X142089285Y-70085295D02*
X142136904Y-69990057D01*
X142136904Y-69990057D02*
X142184523Y-69942438D01*
X142184523Y-69942438D02*
X142279761Y-69894819D01*
X142279761Y-69894819D02*
X142470237Y-69894819D01*
X142470237Y-69894819D02*
X142565475Y-69942438D01*
X142565475Y-69942438D02*
X142613094Y-69990057D01*
X142613094Y-69990057D02*
X142660713Y-70085295D01*
X142660713Y-70085295D02*
X142660713Y-70323390D01*
X142660713Y-70323390D02*
X142613094Y-70418628D01*
X142613094Y-70418628D02*
X142565475Y-70466247D01*
X142565475Y-70466247D02*
X142470237Y-70513866D01*
X142470237Y-70513866D02*
X142279761Y-70513866D01*
X142279761Y-70513866D02*
X142184523Y-70466247D01*
X142184523Y-70466247D02*
X142136904Y-70418628D01*
X142136904Y-70418628D02*
X142089285Y-70323390D01*
X125039285Y-70879819D02*
X125039285Y-69879819D01*
X125039285Y-69879819D02*
X124801190Y-69879819D01*
X124801190Y-69879819D02*
X124658333Y-69927438D01*
X124658333Y-69927438D02*
X124563095Y-70022676D01*
X124563095Y-70022676D02*
X124515476Y-70117914D01*
X124515476Y-70117914D02*
X124467857Y-70308390D01*
X124467857Y-70308390D02*
X124467857Y-70451247D01*
X124467857Y-70451247D02*
X124515476Y-70641723D01*
X124515476Y-70641723D02*
X124563095Y-70736961D01*
X124563095Y-70736961D02*
X124658333Y-70832200D01*
X124658333Y-70832200D02*
X124801190Y-70879819D01*
X124801190Y-70879819D02*
X125039285Y-70879819D01*
X123515476Y-70879819D02*
X124086904Y-70879819D01*
X123801190Y-70879819D02*
X123801190Y-69879819D01*
X123801190Y-69879819D02*
X123896428Y-70022676D01*
X123896428Y-70022676D02*
X123991666Y-70117914D01*
X123991666Y-70117914D02*
X124086904Y-70165533D01*
X122896428Y-69879819D02*
X122801190Y-69879819D01*
X122801190Y-69879819D02*
X122705952Y-69927438D01*
X122705952Y-69927438D02*
X122658333Y-69975057D01*
X122658333Y-69975057D02*
X122610714Y-70070295D01*
X122610714Y-70070295D02*
X122563095Y-70260771D01*
X122563095Y-70260771D02*
X122563095Y-70498866D01*
X122563095Y-70498866D02*
X122610714Y-70689342D01*
X122610714Y-70689342D02*
X122658333Y-70784580D01*
X122658333Y-70784580D02*
X122705952Y-70832200D01*
X122705952Y-70832200D02*
X122801190Y-70879819D01*
X122801190Y-70879819D02*
X122896428Y-70879819D01*
X122896428Y-70879819D02*
X122991666Y-70832200D01*
X122991666Y-70832200D02*
X123039285Y-70784580D01*
X123039285Y-70784580D02*
X123086904Y-70689342D01*
X123086904Y-70689342D02*
X123134523Y-70498866D01*
X123134523Y-70498866D02*
X123134523Y-70260771D01*
X123134523Y-70260771D02*
X123086904Y-70070295D01*
X123086904Y-70070295D02*
X123039285Y-69975057D01*
X123039285Y-69975057D02*
X122991666Y-69927438D01*
X122991666Y-69927438D02*
X122896428Y-69879819D01*
%TO.C,D9*%
D11*
X139225000Y-71165000D02*
X139225000Y-74915000D01*
X139225000Y-74915000D02*
X145800000Y-74915000D01*
X146525000Y-71165000D02*
X139225000Y-71165000D01*
X146525000Y-74190000D02*
X145800000Y-74915000D01*
X146525000Y-74190000D02*
X146525000Y-71165000D01*
X145600000Y-74490000D02*
X145450000Y-74690000D01*
X145750000Y-74690000D01*
X145600000Y-74490000D01*
G36*
X145750000Y-74690000D02*
G01*
X145450000Y-74690000D01*
X145600000Y-74490000D01*
X145750000Y-74690000D01*
G37*
%TO.C,D10*%
X120175000Y-71150000D02*
X120175000Y-74900000D01*
X120175000Y-74900000D02*
X126750000Y-74900000D01*
X127475000Y-71150000D02*
X120175000Y-71150000D01*
X127475000Y-74175000D02*
X126750000Y-74900000D01*
X127475000Y-74175000D02*
X127475000Y-71150000D01*
X126550000Y-74475000D02*
X126400000Y-74675000D01*
X126700000Y-74675000D01*
X126550000Y-74475000D01*
G36*
X126700000Y-74675000D02*
G01*
X126400000Y-74675000D01*
X126550000Y-74475000D01*
X126700000Y-74675000D01*
G37*
%TD*%
M02*
