%TF.GenerationSoftware,KiCad,Pcbnew,10.0.5*%
%TF.CreationDate,2026-08-13T16:38:38+05:30*%
%TF.ProjectId,Pokeyboardy,506f6b65-7962-46f6-9172-64792e6b6963,rev?*%
%TF.SameCoordinates,Original*%
%TF.FileFunction,Other,User*%
%FSLAX46Y46*%
G04 Gerber Fmt 4.6, Leading zero omitted, Abs format (unit mm)*
G04 Created by KiCad (PCBNEW 10.0.5) date 2026-08-13 16:38:38*
%MOMM*%
%LPD*%
G01*
G04 APERTURE LIST*
%ADD10C,0.100000*%
%ADD11C,0.150000*%
G04 APERTURE END LIST*
D10*
X112375000Y-69370000D02*
X116125000Y-69370000D01*
X116125000Y-76670000D01*
X112375000Y-76670000D01*
X112375000Y-69370000D01*
D11*
X166936309Y-48629901D02*
X166745833Y-48629901D01*
X166745833Y-48629901D02*
X166650595Y-48677520D01*
X166650595Y-48677520D02*
X166602976Y-48725139D01*
X166602976Y-48725139D02*
X166507738Y-48867996D01*
X166507738Y-48867996D02*
X166460119Y-49058472D01*
X166460119Y-49058472D02*
X166460119Y-49439424D01*
X166460119Y-49439424D02*
X166507738Y-49534662D01*
X166507738Y-49534662D02*
X166555357Y-49582282D01*
X166555357Y-49582282D02*
X166650595Y-49629901D01*
X166650595Y-49629901D02*
X166841071Y-49629901D01*
X166841071Y-49629901D02*
X166936309Y-49582282D01*
X166936309Y-49582282D02*
X166983928Y-49534662D01*
X166983928Y-49534662D02*
X167031547Y-49439424D01*
X167031547Y-49439424D02*
X167031547Y-49201329D01*
X167031547Y-49201329D02*
X166983928Y-49106091D01*
X166983928Y-49106091D02*
X166936309Y-49058472D01*
X166936309Y-49058472D02*
X166841071Y-49010853D01*
X166841071Y-49010853D02*
X166650595Y-49010853D01*
X166650595Y-49010853D02*
X166555357Y-49058472D01*
X166555357Y-49058472D02*
X166507738Y-49106091D01*
X166507738Y-49106091D02*
X166460119Y-49201329D01*
X167460119Y-49534662D02*
X167507738Y-49582282D01*
X167507738Y-49582282D02*
X167460119Y-49629901D01*
X167460119Y-49629901D02*
X167412500Y-49582282D01*
X167412500Y-49582282D02*
X167460119Y-49534662D01*
X167460119Y-49534662D02*
X167460119Y-49629901D01*
X168126785Y-48629901D02*
X168222023Y-48629901D01*
X168222023Y-48629901D02*
X168317261Y-48677520D01*
X168317261Y-48677520D02*
X168364880Y-48725139D01*
X168364880Y-48725139D02*
X168412499Y-48820377D01*
X168412499Y-48820377D02*
X168460118Y-49010853D01*
X168460118Y-49010853D02*
X168460118Y-49248948D01*
X168460118Y-49248948D02*
X168412499Y-49439424D01*
X168412499Y-49439424D02*
X168364880Y-49534662D01*
X168364880Y-49534662D02*
X168317261Y-49582282D01*
X168317261Y-49582282D02*
X168222023Y-49629901D01*
X168222023Y-49629901D02*
X168126785Y-49629901D01*
X168126785Y-49629901D02*
X168031547Y-49582282D01*
X168031547Y-49582282D02*
X167983928Y-49534662D01*
X167983928Y-49534662D02*
X167936309Y-49439424D01*
X167936309Y-49439424D02*
X167888690Y-49248948D01*
X167888690Y-49248948D02*
X167888690Y-49010853D01*
X167888690Y-49010853D02*
X167936309Y-48820377D01*
X167936309Y-48820377D02*
X167983928Y-48725139D01*
X167983928Y-48725139D02*
X168031547Y-48677520D01*
X168031547Y-48677520D02*
X168126785Y-48629901D01*
X168793452Y-48629901D02*
X169460118Y-48629901D01*
X169460118Y-48629901D02*
X169031547Y-49629901D01*
X170317261Y-48629901D02*
X169841071Y-48629901D01*
X169841071Y-48629901D02*
X169793452Y-49106091D01*
X169793452Y-49106091D02*
X169841071Y-49058472D01*
X169841071Y-49058472D02*
X169936309Y-49010853D01*
X169936309Y-49010853D02*
X170174404Y-49010853D01*
X170174404Y-49010853D02*
X170269642Y-49058472D01*
X170269642Y-49058472D02*
X170317261Y-49106091D01*
X170317261Y-49106091D02*
X170364880Y-49201329D01*
X170364880Y-49201329D02*
X170364880Y-49439424D01*
X170364880Y-49439424D02*
X170317261Y-49534662D01*
X170317261Y-49534662D02*
X170269642Y-49582282D01*
X170269642Y-49582282D02*
X170174404Y-49629901D01*
X170174404Y-49629901D02*
X169936309Y-49629901D01*
X169936309Y-49629901D02*
X169841071Y-49582282D01*
X169841071Y-49582282D02*
X169793452Y-49534662D01*
D10*
X165375000Y-45130000D02*
X165375000Y-50911502D01*
X171450000Y-50911502D02*
X171450000Y-45130001D01*
X165375000Y-50325082D02*
X171450000Y-50325082D01*
X165375000Y-50325082D02*
X166501504Y-49738661D01*
X165375000Y-50325082D02*
X166501504Y-50911503D01*
X171450000Y-50325082D02*
X170323496Y-50911503D01*
X171450000Y-50325082D02*
X170323496Y-49738661D01*
D11*
X71284819Y-66108571D02*
X71284819Y-66584761D01*
X71284819Y-66584761D02*
X71761009Y-66632380D01*
X71761009Y-66632380D02*
X71713390Y-66584761D01*
X71713390Y-66584761D02*
X71665771Y-66489523D01*
X71665771Y-66489523D02*
X71665771Y-66251428D01*
X71665771Y-66251428D02*
X71713390Y-66156190D01*
X71713390Y-66156190D02*
X71761009Y-66108571D01*
X71761009Y-66108571D02*
X71856247Y-66060952D01*
X71856247Y-66060952D02*
X72094342Y-66060952D01*
X72094342Y-66060952D02*
X72189580Y-66108571D01*
X72189580Y-66108571D02*
X72237200Y-66156190D01*
X72237200Y-66156190D02*
X72284819Y-66251428D01*
X72284819Y-66251428D02*
X72284819Y-66489523D01*
X72284819Y-66489523D02*
X72237200Y-66584761D01*
X72237200Y-66584761D02*
X72189580Y-66632380D01*
X71618152Y-65203809D02*
X72284819Y-65203809D01*
X71237200Y-65441904D02*
X71951485Y-65679999D01*
X71951485Y-65679999D02*
X71951485Y-65060952D01*
X72189580Y-64679999D02*
X72237200Y-64632380D01*
X72237200Y-64632380D02*
X72284819Y-64679999D01*
X72284819Y-64679999D02*
X72237200Y-64727618D01*
X72237200Y-64727618D02*
X72189580Y-64679999D01*
X72189580Y-64679999D02*
X72284819Y-64679999D01*
X71284819Y-64299047D02*
X71284819Y-63632381D01*
X71284819Y-63632381D02*
X72284819Y-64060952D01*
X71713390Y-63108571D02*
X71665771Y-63203809D01*
X71665771Y-63203809D02*
X71618152Y-63251428D01*
X71618152Y-63251428D02*
X71522914Y-63299047D01*
X71522914Y-63299047D02*
X71475295Y-63299047D01*
X71475295Y-63299047D02*
X71380057Y-63251428D01*
X71380057Y-63251428D02*
X71332438Y-63203809D01*
X71332438Y-63203809D02*
X71284819Y-63108571D01*
X71284819Y-63108571D02*
X71284819Y-62918095D01*
X71284819Y-62918095D02*
X71332438Y-62822857D01*
X71332438Y-62822857D02*
X71380057Y-62775238D01*
X71380057Y-62775238D02*
X71475295Y-62727619D01*
X71475295Y-62727619D02*
X71522914Y-62727619D01*
X71522914Y-62727619D02*
X71618152Y-62775238D01*
X71618152Y-62775238D02*
X71665771Y-62822857D01*
X71665771Y-62822857D02*
X71713390Y-62918095D01*
X71713390Y-62918095D02*
X71713390Y-63108571D01*
X71713390Y-63108571D02*
X71761009Y-63203809D01*
X71761009Y-63203809D02*
X71808628Y-63251428D01*
X71808628Y-63251428D02*
X71903866Y-63299047D01*
X71903866Y-63299047D02*
X72094342Y-63299047D01*
X72094342Y-63299047D02*
X72189580Y-63251428D01*
X72189580Y-63251428D02*
X72237200Y-63203809D01*
X72237200Y-63203809D02*
X72284819Y-63108571D01*
X72284819Y-63108571D02*
X72284819Y-62918095D01*
X72284819Y-62918095D02*
X72237200Y-62822857D01*
X72237200Y-62822857D02*
X72189580Y-62775238D01*
X72189580Y-62775238D02*
X72094342Y-62727619D01*
X72094342Y-62727619D02*
X71903866Y-62727619D01*
X71903866Y-62727619D02*
X71808628Y-62775238D01*
X71808628Y-62775238D02*
X71761009Y-62822857D01*
X71761009Y-62822857D02*
X71713390Y-62918095D01*
D10*
X84700000Y-37290000D02*
X72393580Y-37290000D01*
X72393580Y-92070000D02*
X84700000Y-92070000D01*
X72980000Y-37290000D02*
X72980000Y-92070000D01*
X72980000Y-37290000D02*
X73566421Y-38416504D01*
X72980000Y-37290000D02*
X72393579Y-38416504D01*
X72980000Y-92070000D02*
X72393579Y-90943496D01*
X72980000Y-92070000D02*
X73566421Y-90943496D01*
D11*
X126568095Y-32043390D02*
X126472857Y-31995771D01*
X126472857Y-31995771D02*
X126425238Y-31948152D01*
X126425238Y-31948152D02*
X126377619Y-31852914D01*
X126377619Y-31852914D02*
X126377619Y-31805295D01*
X126377619Y-31805295D02*
X126425238Y-31710057D01*
X126425238Y-31710057D02*
X126472857Y-31662438D01*
X126472857Y-31662438D02*
X126568095Y-31614819D01*
X126568095Y-31614819D02*
X126758571Y-31614819D01*
X126758571Y-31614819D02*
X126853809Y-31662438D01*
X126853809Y-31662438D02*
X126901428Y-31710057D01*
X126901428Y-31710057D02*
X126949047Y-31805295D01*
X126949047Y-31805295D02*
X126949047Y-31852914D01*
X126949047Y-31852914D02*
X126901428Y-31948152D01*
X126901428Y-31948152D02*
X126853809Y-31995771D01*
X126853809Y-31995771D02*
X126758571Y-32043390D01*
X126758571Y-32043390D02*
X126568095Y-32043390D01*
X126568095Y-32043390D02*
X126472857Y-32091009D01*
X126472857Y-32091009D02*
X126425238Y-32138628D01*
X126425238Y-32138628D02*
X126377619Y-32233866D01*
X126377619Y-32233866D02*
X126377619Y-32424342D01*
X126377619Y-32424342D02*
X126425238Y-32519580D01*
X126425238Y-32519580D02*
X126472857Y-32567200D01*
X126472857Y-32567200D02*
X126568095Y-32614819D01*
X126568095Y-32614819D02*
X126758571Y-32614819D01*
X126758571Y-32614819D02*
X126853809Y-32567200D01*
X126853809Y-32567200D02*
X126901428Y-32519580D01*
X126901428Y-32519580D02*
X126949047Y-32424342D01*
X126949047Y-32424342D02*
X126949047Y-32233866D01*
X126949047Y-32233866D02*
X126901428Y-32138628D01*
X126901428Y-32138628D02*
X126853809Y-32091009D01*
X126853809Y-32091009D02*
X126758571Y-32043390D01*
X127806190Y-31614819D02*
X127615714Y-31614819D01*
X127615714Y-31614819D02*
X127520476Y-31662438D01*
X127520476Y-31662438D02*
X127472857Y-31710057D01*
X127472857Y-31710057D02*
X127377619Y-31852914D01*
X127377619Y-31852914D02*
X127330000Y-32043390D01*
X127330000Y-32043390D02*
X127330000Y-32424342D01*
X127330000Y-32424342D02*
X127377619Y-32519580D01*
X127377619Y-32519580D02*
X127425238Y-32567200D01*
X127425238Y-32567200D02*
X127520476Y-32614819D01*
X127520476Y-32614819D02*
X127710952Y-32614819D01*
X127710952Y-32614819D02*
X127806190Y-32567200D01*
X127806190Y-32567200D02*
X127853809Y-32519580D01*
X127853809Y-32519580D02*
X127901428Y-32424342D01*
X127901428Y-32424342D02*
X127901428Y-32186247D01*
X127901428Y-32186247D02*
X127853809Y-32091009D01*
X127853809Y-32091009D02*
X127806190Y-32043390D01*
X127806190Y-32043390D02*
X127710952Y-31995771D01*
X127710952Y-31995771D02*
X127520476Y-31995771D01*
X127520476Y-31995771D02*
X127425238Y-32043390D01*
X127425238Y-32043390D02*
X127377619Y-32091009D01*
X127377619Y-32091009D02*
X127330000Y-32186247D01*
X128330000Y-32519580D02*
X128377619Y-32567200D01*
X128377619Y-32567200D02*
X128330000Y-32614819D01*
X128330000Y-32614819D02*
X128282381Y-32567200D01*
X128282381Y-32567200D02*
X128330000Y-32519580D01*
X128330000Y-32519580D02*
X128330000Y-32614819D01*
X128758571Y-31710057D02*
X128806190Y-31662438D01*
X128806190Y-31662438D02*
X128901428Y-31614819D01*
X128901428Y-31614819D02*
X129139523Y-31614819D01*
X129139523Y-31614819D02*
X129234761Y-31662438D01*
X129234761Y-31662438D02*
X129282380Y-31710057D01*
X129282380Y-31710057D02*
X129329999Y-31805295D01*
X129329999Y-31805295D02*
X129329999Y-31900533D01*
X129329999Y-31900533D02*
X129282380Y-32043390D01*
X129282380Y-32043390D02*
X128710952Y-32614819D01*
X128710952Y-32614819D02*
X129329999Y-32614819D01*
X130187142Y-31948152D02*
X130187142Y-32614819D01*
X129949047Y-31567200D02*
X129710952Y-32281485D01*
X129710952Y-32281485D02*
X130329999Y-32281485D01*
D10*
X171450000Y-39790000D02*
X171450000Y-32723580D01*
X85210000Y-32723580D02*
X85210000Y-39790000D01*
X171450000Y-33310000D02*
X85210000Y-33310000D01*
X171450000Y-33310000D02*
X170323496Y-33896421D01*
X171450000Y-33310000D02*
X170323496Y-32723579D01*
X85210000Y-33310000D02*
X86336504Y-32723579D01*
X85210000Y-33310000D02*
X86336504Y-33896421D01*
D11*
X149065476Y-39389819D02*
X149684523Y-39389819D01*
X149684523Y-39389819D02*
X149351190Y-39770771D01*
X149351190Y-39770771D02*
X149494047Y-39770771D01*
X149494047Y-39770771D02*
X149589285Y-39818390D01*
X149589285Y-39818390D02*
X149636904Y-39866009D01*
X149636904Y-39866009D02*
X149684523Y-39961247D01*
X149684523Y-39961247D02*
X149684523Y-40199342D01*
X149684523Y-40199342D02*
X149636904Y-40294580D01*
X149636904Y-40294580D02*
X149589285Y-40342200D01*
X149589285Y-40342200D02*
X149494047Y-40389819D01*
X149494047Y-40389819D02*
X149208333Y-40389819D01*
X149208333Y-40389819D02*
X149113095Y-40342200D01*
X149113095Y-40342200D02*
X149065476Y-40294580D01*
X150255952Y-39818390D02*
X150160714Y-39770771D01*
X150160714Y-39770771D02*
X150113095Y-39723152D01*
X150113095Y-39723152D02*
X150065476Y-39627914D01*
X150065476Y-39627914D02*
X150065476Y-39580295D01*
X150065476Y-39580295D02*
X150113095Y-39485057D01*
X150113095Y-39485057D02*
X150160714Y-39437438D01*
X150160714Y-39437438D02*
X150255952Y-39389819D01*
X150255952Y-39389819D02*
X150446428Y-39389819D01*
X150446428Y-39389819D02*
X150541666Y-39437438D01*
X150541666Y-39437438D02*
X150589285Y-39485057D01*
X150589285Y-39485057D02*
X150636904Y-39580295D01*
X150636904Y-39580295D02*
X150636904Y-39627914D01*
X150636904Y-39627914D02*
X150589285Y-39723152D01*
X150589285Y-39723152D02*
X150541666Y-39770771D01*
X150541666Y-39770771D02*
X150446428Y-39818390D01*
X150446428Y-39818390D02*
X150255952Y-39818390D01*
X150255952Y-39818390D02*
X150160714Y-39866009D01*
X150160714Y-39866009D02*
X150113095Y-39913628D01*
X150113095Y-39913628D02*
X150065476Y-40008866D01*
X150065476Y-40008866D02*
X150065476Y-40199342D01*
X150065476Y-40199342D02*
X150113095Y-40294580D01*
X150113095Y-40294580D02*
X150160714Y-40342200D01*
X150160714Y-40342200D02*
X150255952Y-40389819D01*
X150255952Y-40389819D02*
X150446428Y-40389819D01*
X150446428Y-40389819D02*
X150541666Y-40342200D01*
X150541666Y-40342200D02*
X150589285Y-40294580D01*
X150589285Y-40294580D02*
X150636904Y-40199342D01*
X150636904Y-40199342D02*
X150636904Y-40008866D01*
X150636904Y-40008866D02*
X150589285Y-39913628D01*
X150589285Y-39913628D02*
X150541666Y-39866009D01*
X150541666Y-39866009D02*
X150446428Y-39818390D01*
D10*
X168875000Y-39130001D02*
X168875000Y-41671420D01*
X130875000Y-41671420D02*
X130875000Y-39130000D01*
X168875000Y-41085000D02*
X130875000Y-41085000D01*
X168875000Y-41085000D02*
X167748496Y-41671421D01*
X168875000Y-41085000D02*
X167748496Y-40498579D01*
X130875000Y-41085000D02*
X132001504Y-40498579D01*
X130875000Y-41085000D02*
X132001504Y-41671421D01*
D11*
X97772619Y-93665057D02*
X97820238Y-93617438D01*
X97820238Y-93617438D02*
X97915476Y-93569819D01*
X97915476Y-93569819D02*
X98153571Y-93569819D01*
X98153571Y-93569819D02*
X98248809Y-93617438D01*
X98248809Y-93617438D02*
X98296428Y-93665057D01*
X98296428Y-93665057D02*
X98344047Y-93760295D01*
X98344047Y-93760295D02*
X98344047Y-93855533D01*
X98344047Y-93855533D02*
X98296428Y-93998390D01*
X98296428Y-93998390D02*
X97725000Y-94569819D01*
X97725000Y-94569819D02*
X98344047Y-94569819D01*
X98820238Y-94569819D02*
X99010714Y-94569819D01*
X99010714Y-94569819D02*
X99105952Y-94522200D01*
X99105952Y-94522200D02*
X99153571Y-94474580D01*
X99153571Y-94474580D02*
X99248809Y-94331723D01*
X99248809Y-94331723D02*
X99296428Y-94141247D01*
X99296428Y-94141247D02*
X99296428Y-93760295D01*
X99296428Y-93760295D02*
X99248809Y-93665057D01*
X99248809Y-93665057D02*
X99201190Y-93617438D01*
X99201190Y-93617438D02*
X99105952Y-93569819D01*
X99105952Y-93569819D02*
X98915476Y-93569819D01*
X98915476Y-93569819D02*
X98820238Y-93617438D01*
X98820238Y-93617438D02*
X98772619Y-93665057D01*
X98772619Y-93665057D02*
X98725000Y-93760295D01*
X98725000Y-93760295D02*
X98725000Y-93998390D01*
X98725000Y-93998390D02*
X98772619Y-94093628D01*
X98772619Y-94093628D02*
X98820238Y-94141247D01*
X98820238Y-94141247D02*
X98915476Y-94188866D01*
X98915476Y-94188866D02*
X99105952Y-94188866D01*
X99105952Y-94188866D02*
X99201190Y-94141247D01*
X99201190Y-94141247D02*
X99248809Y-94093628D01*
X99248809Y-94093628D02*
X99296428Y-93998390D01*
X99725000Y-94474580D02*
X99772619Y-94522200D01*
X99772619Y-94522200D02*
X99725000Y-94569819D01*
X99725000Y-94569819D02*
X99677381Y-94522200D01*
X99677381Y-94522200D02*
X99725000Y-94474580D01*
X99725000Y-94474580D02*
X99725000Y-94569819D01*
X100391666Y-93569819D02*
X100486904Y-93569819D01*
X100486904Y-93569819D02*
X100582142Y-93617438D01*
X100582142Y-93617438D02*
X100629761Y-93665057D01*
X100629761Y-93665057D02*
X100677380Y-93760295D01*
X100677380Y-93760295D02*
X100724999Y-93950771D01*
X100724999Y-93950771D02*
X100724999Y-94188866D01*
X100724999Y-94188866D02*
X100677380Y-94379342D01*
X100677380Y-94379342D02*
X100629761Y-94474580D01*
X100629761Y-94474580D02*
X100582142Y-94522200D01*
X100582142Y-94522200D02*
X100486904Y-94569819D01*
X100486904Y-94569819D02*
X100391666Y-94569819D01*
X100391666Y-94569819D02*
X100296428Y-94522200D01*
X100296428Y-94522200D02*
X100248809Y-94474580D01*
X100248809Y-94474580D02*
X100201190Y-94379342D01*
X100201190Y-94379342D02*
X100153571Y-94188866D01*
X100153571Y-94188866D02*
X100153571Y-93950771D01*
X100153571Y-93950771D02*
X100201190Y-93760295D01*
X100201190Y-93760295D02*
X100248809Y-93665057D01*
X100248809Y-93665057D02*
X100296428Y-93617438D01*
X100296428Y-93617438D02*
X100391666Y-93569819D01*
X101629761Y-93569819D02*
X101153571Y-93569819D01*
X101153571Y-93569819D02*
X101105952Y-94046009D01*
X101105952Y-94046009D02*
X101153571Y-93998390D01*
X101153571Y-93998390D02*
X101248809Y-93950771D01*
X101248809Y-93950771D02*
X101486904Y-93950771D01*
X101486904Y-93950771D02*
X101582142Y-93998390D01*
X101582142Y-93998390D02*
X101629761Y-94046009D01*
X101629761Y-94046009D02*
X101677380Y-94141247D01*
X101677380Y-94141247D02*
X101677380Y-94379342D01*
X101677380Y-94379342D02*
X101629761Y-94474580D01*
X101629761Y-94474580D02*
X101582142Y-94522200D01*
X101582142Y-94522200D02*
X101486904Y-94569819D01*
X101486904Y-94569819D02*
X101248809Y-94569819D01*
X101248809Y-94569819D02*
X101153571Y-94522200D01*
X101153571Y-94522200D02*
X101105952Y-94474580D01*
D10*
X114250000Y-73520000D02*
X114250000Y-95851420D01*
X85200000Y-95851420D02*
X85200000Y-79765000D01*
X114250000Y-95265000D02*
X85200000Y-95265000D01*
X114250000Y-95265000D02*
X113123496Y-95851421D01*
X114250000Y-95265000D02*
X113123496Y-94678579D01*
X85200000Y-95265000D02*
X86326504Y-94678579D01*
X85200000Y-95265000D02*
X86326504Y-95851421D01*
D11*
X154589819Y-44820477D02*
X154589819Y-45391905D01*
X154589819Y-45106191D02*
X153589819Y-45106191D01*
X153589819Y-45106191D02*
X153732676Y-45201429D01*
X153732676Y-45201429D02*
X153827914Y-45296667D01*
X153827914Y-45296667D02*
X153875533Y-45391905D01*
X153685057Y-44439524D02*
X153637438Y-44391905D01*
X153637438Y-44391905D02*
X153589819Y-44296667D01*
X153589819Y-44296667D02*
X153589819Y-44058572D01*
X153589819Y-44058572D02*
X153637438Y-43963334D01*
X153637438Y-43963334D02*
X153685057Y-43915715D01*
X153685057Y-43915715D02*
X153780295Y-43868096D01*
X153780295Y-43868096D02*
X153875533Y-43868096D01*
X153875533Y-43868096D02*
X154018390Y-43915715D01*
X154018390Y-43915715D02*
X154589819Y-44487143D01*
X154589819Y-44487143D02*
X154589819Y-43868096D01*
D10*
X168375000Y-38630001D02*
X154698580Y-38630001D01*
X154698580Y-50630000D02*
X168375000Y-50630000D01*
X155285000Y-38630001D02*
X155285000Y-50630000D01*
X155285000Y-38630001D02*
X155871421Y-39756505D01*
X155285000Y-38630001D02*
X154698579Y-39756505D01*
X155285000Y-50630000D02*
X154698579Y-49503496D01*
X155285000Y-50630000D02*
X155871421Y-49503496D01*
D11*
X108864819Y-74067618D02*
X108864819Y-73400952D01*
X108864819Y-73400952D02*
X109864819Y-73829523D01*
X109769580Y-73019999D02*
X109817200Y-72972380D01*
X109817200Y-72972380D02*
X109864819Y-73019999D01*
X109864819Y-73019999D02*
X109817200Y-73067618D01*
X109817200Y-73067618D02*
X109769580Y-73019999D01*
X109769580Y-73019999D02*
X109864819Y-73019999D01*
X108864819Y-72639047D02*
X108864819Y-72020000D01*
X108864819Y-72020000D02*
X109245771Y-72353333D01*
X109245771Y-72353333D02*
X109245771Y-72210476D01*
X109245771Y-72210476D02*
X109293390Y-72115238D01*
X109293390Y-72115238D02*
X109341009Y-72067619D01*
X109341009Y-72067619D02*
X109436247Y-72020000D01*
X109436247Y-72020000D02*
X109674342Y-72020000D01*
X109674342Y-72020000D02*
X109769580Y-72067619D01*
X109769580Y-72067619D02*
X109817200Y-72115238D01*
X109817200Y-72115238D02*
X109864819Y-72210476D01*
X109864819Y-72210476D02*
X109864819Y-72496190D01*
X109864819Y-72496190D02*
X109817200Y-72591428D01*
X109817200Y-72591428D02*
X109769580Y-72639047D01*
D10*
X111875000Y-69370000D02*
X109973580Y-69370000D01*
X109973580Y-76670000D02*
X111880000Y-76670000D01*
X110560000Y-69370000D02*
X110560000Y-76670000D01*
X110560000Y-69370000D02*
X111146421Y-70496504D01*
X110560000Y-69370000D02*
X109973579Y-70496504D01*
X110560000Y-76670000D02*
X109973579Y-75543496D01*
X110560000Y-76670000D02*
X111146421Y-75543496D01*
D11*
X76504819Y-83925952D02*
X76504819Y-84497380D01*
X76504819Y-84211666D02*
X75504819Y-84211666D01*
X75504819Y-84211666D02*
X75647676Y-84306904D01*
X75647676Y-84306904D02*
X75742914Y-84402142D01*
X75742914Y-84402142D02*
X75790533Y-84497380D01*
X76504819Y-83449761D02*
X76504819Y-83259285D01*
X76504819Y-83259285D02*
X76457200Y-83164047D01*
X76457200Y-83164047D02*
X76409580Y-83116428D01*
X76409580Y-83116428D02*
X76266723Y-83021190D01*
X76266723Y-83021190D02*
X76076247Y-82973571D01*
X76076247Y-82973571D02*
X75695295Y-82973571D01*
X75695295Y-82973571D02*
X75600057Y-83021190D01*
X75600057Y-83021190D02*
X75552438Y-83068809D01*
X75552438Y-83068809D02*
X75504819Y-83164047D01*
X75504819Y-83164047D02*
X75504819Y-83354523D01*
X75504819Y-83354523D02*
X75552438Y-83449761D01*
X75552438Y-83449761D02*
X75600057Y-83497380D01*
X75600057Y-83497380D02*
X75695295Y-83544999D01*
X75695295Y-83544999D02*
X75933390Y-83544999D01*
X75933390Y-83544999D02*
X76028628Y-83497380D01*
X76028628Y-83497380D02*
X76076247Y-83449761D01*
X76076247Y-83449761D02*
X76123866Y-83354523D01*
X76123866Y-83354523D02*
X76123866Y-83164047D01*
X76123866Y-83164047D02*
X76076247Y-83068809D01*
X76076247Y-83068809D02*
X76028628Y-83021190D01*
X76028628Y-83021190D02*
X75933390Y-82973571D01*
X76409580Y-82544999D02*
X76457200Y-82497380D01*
X76457200Y-82497380D02*
X76504819Y-82544999D01*
X76504819Y-82544999D02*
X76457200Y-82592618D01*
X76457200Y-82592618D02*
X76409580Y-82544999D01*
X76409580Y-82544999D02*
X76504819Y-82544999D01*
X75504819Y-81878333D02*
X75504819Y-81783095D01*
X75504819Y-81783095D02*
X75552438Y-81687857D01*
X75552438Y-81687857D02*
X75600057Y-81640238D01*
X75600057Y-81640238D02*
X75695295Y-81592619D01*
X75695295Y-81592619D02*
X75885771Y-81545000D01*
X75885771Y-81545000D02*
X76123866Y-81545000D01*
X76123866Y-81545000D02*
X76314342Y-81592619D01*
X76314342Y-81592619D02*
X76409580Y-81640238D01*
X76409580Y-81640238D02*
X76457200Y-81687857D01*
X76457200Y-81687857D02*
X76504819Y-81783095D01*
X76504819Y-81783095D02*
X76504819Y-81878333D01*
X76504819Y-81878333D02*
X76457200Y-81973571D01*
X76457200Y-81973571D02*
X76409580Y-82021190D01*
X76409580Y-82021190D02*
X76314342Y-82068809D01*
X76314342Y-82068809D02*
X76123866Y-82116428D01*
X76123866Y-82116428D02*
X75885771Y-82116428D01*
X75885771Y-82116428D02*
X75695295Y-82068809D01*
X75695295Y-82068809D02*
X75600057Y-82021190D01*
X75600057Y-82021190D02*
X75552438Y-81973571D01*
X75552438Y-81973571D02*
X75504819Y-81878333D01*
X75504819Y-80640238D02*
X75504819Y-81116428D01*
X75504819Y-81116428D02*
X75981009Y-81164047D01*
X75981009Y-81164047D02*
X75933390Y-81116428D01*
X75933390Y-81116428D02*
X75885771Y-81021190D01*
X75885771Y-81021190D02*
X75885771Y-80783095D01*
X75885771Y-80783095D02*
X75933390Y-80687857D01*
X75933390Y-80687857D02*
X75981009Y-80640238D01*
X75981009Y-80640238D02*
X76076247Y-80592619D01*
X76076247Y-80592619D02*
X76314342Y-80592619D01*
X76314342Y-80592619D02*
X76409580Y-80640238D01*
X76409580Y-80640238D02*
X76457200Y-80687857D01*
X76457200Y-80687857D02*
X76504819Y-80783095D01*
X76504819Y-80783095D02*
X76504819Y-81021190D01*
X76504819Y-81021190D02*
X76457200Y-81116428D01*
X76457200Y-81116428D02*
X76409580Y-81164047D01*
D10*
X113750000Y-73020000D02*
X76613580Y-73020000D01*
X76613580Y-92070000D02*
X91050000Y-92070000D01*
X77200000Y-73020000D02*
X77200000Y-92070000D01*
X77200000Y-73020000D02*
X77786421Y-74146504D01*
X77200000Y-73020000D02*
X76613579Y-74146504D01*
X77200000Y-92070000D02*
X76613579Y-90943496D01*
X77200000Y-92070000D02*
X77786421Y-90943496D01*
D11*
X165565476Y-42934819D02*
X165375000Y-42934819D01*
X165375000Y-42934819D02*
X165279762Y-42982438D01*
X165279762Y-42982438D02*
X165232143Y-43030057D01*
X165232143Y-43030057D02*
X165136905Y-43172914D01*
X165136905Y-43172914D02*
X165089286Y-43363390D01*
X165089286Y-43363390D02*
X165089286Y-43744342D01*
X165089286Y-43744342D02*
X165136905Y-43839580D01*
X165136905Y-43839580D02*
X165184524Y-43887200D01*
X165184524Y-43887200D02*
X165279762Y-43934819D01*
X165279762Y-43934819D02*
X165470238Y-43934819D01*
X165470238Y-43934819D02*
X165565476Y-43887200D01*
X165565476Y-43887200D02*
X165613095Y-43839580D01*
X165613095Y-43839580D02*
X165660714Y-43744342D01*
X165660714Y-43744342D02*
X165660714Y-43506247D01*
X165660714Y-43506247D02*
X165613095Y-43411009D01*
X165613095Y-43411009D02*
X165565476Y-43363390D01*
X165565476Y-43363390D02*
X165470238Y-43315771D01*
X165470238Y-43315771D02*
X165279762Y-43315771D01*
X165279762Y-43315771D02*
X165184524Y-43363390D01*
X165184524Y-43363390D02*
X165136905Y-43411009D01*
X165136905Y-43411009D02*
X165089286Y-43506247D01*
D10*
X162375000Y-44630000D02*
X162375000Y-44630000D01*
X168375000Y-44630000D02*
X168375000Y-44630000D01*
X162375000Y-44630000D02*
X168375000Y-44630000D01*
X162375000Y-44630000D02*
X163501504Y-44043579D01*
X162375000Y-44630000D02*
X163501504Y-45216421D01*
X168375000Y-44630000D02*
X167248496Y-45216421D01*
X168375000Y-44630000D02*
X167248496Y-44043579D01*
D11*
X177969819Y-42483808D02*
X177969819Y-41817142D01*
X177969819Y-41817142D02*
X178969819Y-42245713D01*
X178874580Y-41436189D02*
X178922200Y-41388570D01*
X178922200Y-41388570D02*
X178969819Y-41436189D01*
X178969819Y-41436189D02*
X178922200Y-41483808D01*
X178922200Y-41483808D02*
X178874580Y-41436189D01*
X178874580Y-41436189D02*
X178969819Y-41436189D01*
X177969819Y-41055237D02*
X177969819Y-40436190D01*
X177969819Y-40436190D02*
X178350771Y-40769523D01*
X178350771Y-40769523D02*
X178350771Y-40626666D01*
X178350771Y-40626666D02*
X178398390Y-40531428D01*
X178398390Y-40531428D02*
X178446009Y-40483809D01*
X178446009Y-40483809D02*
X178541247Y-40436190D01*
X178541247Y-40436190D02*
X178779342Y-40436190D01*
X178779342Y-40436190D02*
X178874580Y-40483809D01*
X178874580Y-40483809D02*
X178922200Y-40531428D01*
X178922200Y-40531428D02*
X178969819Y-40626666D01*
X178969819Y-40626666D02*
X178969819Y-40912380D01*
X178969819Y-40912380D02*
X178922200Y-41007618D01*
X178922200Y-41007618D02*
X178874580Y-41055237D01*
X178303152Y-39579047D02*
X178969819Y-39579047D01*
X177922200Y-39817142D02*
X178636485Y-40055237D01*
X178636485Y-40055237D02*
X178636485Y-39436190D01*
D10*
X165875000Y-44630000D02*
X180251420Y-44630000D01*
X180251420Y-37290000D02*
X165875000Y-37290000D01*
X179665000Y-44630000D02*
X179665000Y-37290000D01*
X179665000Y-44630000D02*
X179078579Y-43503496D01*
X179665000Y-44630000D02*
X180251421Y-43503496D01*
X179665000Y-37290000D02*
X180251421Y-38416504D01*
X179665000Y-37290000D02*
X179078579Y-38416504D01*
D11*
X168210119Y-34180057D02*
X168257738Y-34132438D01*
X168257738Y-34132438D02*
X168352976Y-34084819D01*
X168352976Y-34084819D02*
X168591071Y-34084819D01*
X168591071Y-34084819D02*
X168686309Y-34132438D01*
X168686309Y-34132438D02*
X168733928Y-34180057D01*
X168733928Y-34180057D02*
X168781547Y-34275295D01*
X168781547Y-34275295D02*
X168781547Y-34370533D01*
X168781547Y-34370533D02*
X168733928Y-34513390D01*
X168733928Y-34513390D02*
X168162500Y-35084819D01*
X168162500Y-35084819D02*
X168781547Y-35084819D01*
X169210119Y-34989580D02*
X169257738Y-35037200D01*
X169257738Y-35037200D02*
X169210119Y-35084819D01*
X169210119Y-35084819D02*
X169162500Y-35037200D01*
X169162500Y-35037200D02*
X169210119Y-34989580D01*
X169210119Y-34989580D02*
X169210119Y-35084819D01*
X170162499Y-34084819D02*
X169686309Y-34084819D01*
X169686309Y-34084819D02*
X169638690Y-34561009D01*
X169638690Y-34561009D02*
X169686309Y-34513390D01*
X169686309Y-34513390D02*
X169781547Y-34465771D01*
X169781547Y-34465771D02*
X170019642Y-34465771D01*
X170019642Y-34465771D02*
X170114880Y-34513390D01*
X170114880Y-34513390D02*
X170162499Y-34561009D01*
X170162499Y-34561009D02*
X170210118Y-34656247D01*
X170210118Y-34656247D02*
X170210118Y-34894342D01*
X170210118Y-34894342D02*
X170162499Y-34989580D01*
X170162499Y-34989580D02*
X170114880Y-35037200D01*
X170114880Y-35037200D02*
X170019642Y-35084819D01*
X170019642Y-35084819D02*
X169781547Y-35084819D01*
X169781547Y-35084819D02*
X169686309Y-35037200D01*
X169686309Y-35037200D02*
X169638690Y-34989580D01*
X170543452Y-34084819D02*
X171210118Y-34084819D01*
X171210118Y-34084819D02*
X170781547Y-35084819D01*
X172067261Y-34084819D02*
X171591071Y-34084819D01*
X171591071Y-34084819D02*
X171543452Y-34561009D01*
X171543452Y-34561009D02*
X171591071Y-34513390D01*
X171591071Y-34513390D02*
X171686309Y-34465771D01*
X171686309Y-34465771D02*
X171924404Y-34465771D01*
X171924404Y-34465771D02*
X172019642Y-34513390D01*
X172019642Y-34513390D02*
X172067261Y-34561009D01*
X172067261Y-34561009D02*
X172114880Y-34656247D01*
X172114880Y-34656247D02*
X172114880Y-34894342D01*
X172114880Y-34894342D02*
X172067261Y-34989580D01*
X172067261Y-34989580D02*
X172019642Y-35037200D01*
X172019642Y-35037200D02*
X171924404Y-35084819D01*
X171924404Y-35084819D02*
X171686309Y-35084819D01*
X171686309Y-35084819D02*
X171591071Y-35037200D01*
X171591071Y-35037200D02*
X171543452Y-34989580D01*
D10*
X168875000Y-38130001D02*
X168875000Y-35193580D01*
X171450000Y-35193580D02*
X171450000Y-38130001D01*
X168875000Y-35780000D02*
X171450000Y-35780000D01*
X168875000Y-35780000D02*
X170001504Y-35193579D01*
X168875000Y-35780000D02*
X170001504Y-36366421D01*
X171450000Y-35780000D02*
X170323496Y-36366421D01*
X171450000Y-35780000D02*
X170323496Y-35193579D01*
D11*
X174924819Y-38864761D02*
X174924819Y-39436189D01*
X174924819Y-39150475D02*
X173924819Y-39150475D01*
X173924819Y-39150475D02*
X174067676Y-39245713D01*
X174067676Y-39245713D02*
X174162914Y-39340951D01*
X174162914Y-39340951D02*
X174210533Y-39436189D01*
X174829580Y-38436189D02*
X174877200Y-38388570D01*
X174877200Y-38388570D02*
X174924819Y-38436189D01*
X174924819Y-38436189D02*
X174877200Y-38483808D01*
X174877200Y-38483808D02*
X174829580Y-38436189D01*
X174829580Y-38436189D02*
X174924819Y-38436189D01*
X173924819Y-38055237D02*
X173924819Y-37436190D01*
X173924819Y-37436190D02*
X174305771Y-37769523D01*
X174305771Y-37769523D02*
X174305771Y-37626666D01*
X174305771Y-37626666D02*
X174353390Y-37531428D01*
X174353390Y-37531428D02*
X174401009Y-37483809D01*
X174401009Y-37483809D02*
X174496247Y-37436190D01*
X174496247Y-37436190D02*
X174734342Y-37436190D01*
X174734342Y-37436190D02*
X174829580Y-37483809D01*
X174829580Y-37483809D02*
X174877200Y-37531428D01*
X174877200Y-37531428D02*
X174924819Y-37626666D01*
X174924819Y-37626666D02*
X174924819Y-37912380D01*
X174924819Y-37912380D02*
X174877200Y-38007618D01*
X174877200Y-38007618D02*
X174829580Y-38055237D01*
X174258152Y-36579047D02*
X174924819Y-36579047D01*
X173877200Y-36817142D02*
X174591485Y-37055237D01*
X174591485Y-37055237D02*
X174591485Y-36436190D01*
D10*
X169375000Y-38630001D02*
X176206420Y-38630001D01*
X176206420Y-37290000D02*
X169405000Y-37290000D01*
X175620000Y-38630001D02*
X175620000Y-37290000D01*
X175620000Y-38630001D02*
X175033579Y-37503497D01*
X175620000Y-38630001D02*
X176206421Y-37503497D01*
X175620000Y-37290000D02*
X176206421Y-38416504D01*
X175620000Y-37290000D02*
X175033579Y-38416504D01*
M02*
