%TF.GenerationSoftware,KiCad,Pcbnew,10.0.5*%
%TF.CreationDate,2026-08-13T16:38:38+05:30*%
%TF.ProjectId,Pokeyboardy,506f6b65-7962-46f6-9172-64792e6b6963,rev?*%
%TF.SameCoordinates,Original*%
%TF.FileFunction,AssemblyDrawing,Bot*%
%FSLAX46Y46*%
G04 Gerber Fmt 4.6, Leading zero omitted, Abs format (unit mm)*
G04 Created by KiCad (PCBNEW 10.0.5) date 2026-08-13 16:38:38*
%MOMM*%
%LPD*%
G01*
G04 APERTURE LIST*
%ADD10C,0.150000*%
%ADD11C,0.100000*%
G04 APERTURE END LIST*
D10*
X148208332Y-75987200D02*
X148065475Y-76034819D01*
X148065475Y-76034819D02*
X147827380Y-76034819D01*
X147827380Y-76034819D02*
X147732142Y-75987200D01*
X147732142Y-75987200D02*
X147684523Y-75939580D01*
X147684523Y-75939580D02*
X147636904Y-75844342D01*
X147636904Y-75844342D02*
X147636904Y-75749104D01*
X147636904Y-75749104D02*
X147684523Y-75653866D01*
X147684523Y-75653866D02*
X147732142Y-75606247D01*
X147732142Y-75606247D02*
X147827380Y-75558628D01*
X147827380Y-75558628D02*
X148017856Y-75511009D01*
X148017856Y-75511009D02*
X148113094Y-75463390D01*
X148113094Y-75463390D02*
X148160713Y-75415771D01*
X148160713Y-75415771D02*
X148208332Y-75320533D01*
X148208332Y-75320533D02*
X148208332Y-75225295D01*
X148208332Y-75225295D02*
X148160713Y-75130057D01*
X148160713Y-75130057D02*
X148113094Y-75082438D01*
X148113094Y-75082438D02*
X148017856Y-75034819D01*
X148017856Y-75034819D02*
X147779761Y-75034819D01*
X147779761Y-75034819D02*
X147636904Y-75082438D01*
X147208332Y-76034819D02*
X147208332Y-75034819D01*
X146636904Y-76034819D02*
X147065475Y-75463390D01*
X146636904Y-75034819D02*
X147208332Y-75606247D01*
X145779761Y-75034819D02*
X145970237Y-75034819D01*
X145970237Y-75034819D02*
X146065475Y-75082438D01*
X146065475Y-75082438D02*
X146113094Y-75130057D01*
X146113094Y-75130057D02*
X146208332Y-75272914D01*
X146208332Y-75272914D02*
X146255951Y-75463390D01*
X146255951Y-75463390D02*
X146255951Y-75844342D01*
X146255951Y-75844342D02*
X146208332Y-75939580D01*
X146208332Y-75939580D02*
X146160713Y-75987200D01*
X146160713Y-75987200D02*
X146065475Y-76034819D01*
X146065475Y-76034819D02*
X145874999Y-76034819D01*
X145874999Y-76034819D02*
X145779761Y-75987200D01*
X145779761Y-75987200D02*
X145732142Y-75939580D01*
X145732142Y-75939580D02*
X145684523Y-75844342D01*
X145684523Y-75844342D02*
X145684523Y-75606247D01*
X145684523Y-75606247D02*
X145732142Y-75511009D01*
X145732142Y-75511009D02*
X145779761Y-75463390D01*
X145779761Y-75463390D02*
X145874999Y-75415771D01*
X145874999Y-75415771D02*
X146065475Y-75415771D01*
X146065475Y-75415771D02*
X146160713Y-75463390D01*
X146160713Y-75463390D02*
X146208332Y-75511009D01*
X146208332Y-75511009D02*
X146255951Y-75606247D01*
X145113094Y-75463390D02*
X145208332Y-75415771D01*
X145208332Y-75415771D02*
X145255951Y-75368152D01*
X145255951Y-75368152D02*
X145303570Y-75272914D01*
X145303570Y-75272914D02*
X145303570Y-75225295D01*
X145303570Y-75225295D02*
X145255951Y-75130057D01*
X145255951Y-75130057D02*
X145208332Y-75082438D01*
X145208332Y-75082438D02*
X145113094Y-75034819D01*
X145113094Y-75034819D02*
X144922618Y-75034819D01*
X144922618Y-75034819D02*
X144827380Y-75082438D01*
X144827380Y-75082438D02*
X144779761Y-75130057D01*
X144779761Y-75130057D02*
X144732142Y-75225295D01*
X144732142Y-75225295D02*
X144732142Y-75272914D01*
X144732142Y-75272914D02*
X144779761Y-75368152D01*
X144779761Y-75368152D02*
X144827380Y-75415771D01*
X144827380Y-75415771D02*
X144922618Y-75463390D01*
X144922618Y-75463390D02*
X145113094Y-75463390D01*
X145113094Y-75463390D02*
X145208332Y-75511009D01*
X145208332Y-75511009D02*
X145255951Y-75558628D01*
X145255951Y-75558628D02*
X145303570Y-75653866D01*
X145303570Y-75653866D02*
X145303570Y-75844342D01*
X145303570Y-75844342D02*
X145255951Y-75939580D01*
X145255951Y-75939580D02*
X145208332Y-75987200D01*
X145208332Y-75987200D02*
X145113094Y-76034819D01*
X145113094Y-76034819D02*
X144922618Y-76034819D01*
X144922618Y-76034819D02*
X144827380Y-75987200D01*
X144827380Y-75987200D02*
X144779761Y-75939580D01*
X144779761Y-75939580D02*
X144732142Y-75844342D01*
X144732142Y-75844342D02*
X144732142Y-75653866D01*
X144732142Y-75653866D02*
X144779761Y-75558628D01*
X144779761Y-75558628D02*
X144827380Y-75511009D01*
X144827380Y-75511009D02*
X144922618Y-75463390D01*
X143779761Y-76034819D02*
X144351189Y-76034819D01*
X144065475Y-76034819D02*
X144065475Y-75034819D01*
X144065475Y-75034819D02*
X144160713Y-75177676D01*
X144160713Y-75177676D02*
X144255951Y-75272914D01*
X144255951Y-75272914D02*
X144351189Y-75320533D01*
X143398808Y-75130057D02*
X143351189Y-75082438D01*
X143351189Y-75082438D02*
X143255951Y-75034819D01*
X143255951Y-75034819D02*
X143017856Y-75034819D01*
X143017856Y-75034819D02*
X142922618Y-75082438D01*
X142922618Y-75082438D02*
X142874999Y-75130057D01*
X142874999Y-75130057D02*
X142827380Y-75225295D01*
X142827380Y-75225295D02*
X142827380Y-75320533D01*
X142827380Y-75320533D02*
X142874999Y-75463390D01*
X142874999Y-75463390D02*
X143446427Y-76034819D01*
X143446427Y-76034819D02*
X142827380Y-76034819D01*
X142398808Y-76034819D02*
X142398808Y-75034819D01*
X142398808Y-75034819D02*
X142065475Y-75749104D01*
X142065475Y-75749104D02*
X141732142Y-75034819D01*
X141732142Y-75034819D02*
X141732142Y-76034819D01*
X141255951Y-76034819D02*
X141255951Y-75034819D01*
X140779761Y-76034819D02*
X140779761Y-75034819D01*
X140779761Y-75034819D02*
X140208333Y-76034819D01*
X140208333Y-76034819D02*
X140208333Y-75034819D01*
X139732142Y-76034819D02*
X139732142Y-75034819D01*
X139255952Y-75653866D02*
X138494048Y-75653866D01*
X138017857Y-75511009D02*
X137684524Y-75511009D01*
X137541667Y-76034819D02*
X138017857Y-76034819D01*
X138017857Y-76034819D02*
X138017857Y-75034819D01*
X138017857Y-75034819D02*
X137541667Y-75034819D01*
D11*
X143244047Y-73266109D02*
X143244047Y-72766109D01*
X143244047Y-72766109D02*
X143124999Y-72766109D01*
X143124999Y-72766109D02*
X143053571Y-72789919D01*
X143053571Y-72789919D02*
X143005952Y-72837538D01*
X143005952Y-72837538D02*
X142982142Y-72885157D01*
X142982142Y-72885157D02*
X142958333Y-72980395D01*
X142958333Y-72980395D02*
X142958333Y-73051823D01*
X142958333Y-73051823D02*
X142982142Y-73147061D01*
X142982142Y-73147061D02*
X143005952Y-73194680D01*
X143005952Y-73194680D02*
X143053571Y-73242300D01*
X143053571Y-73242300D02*
X143124999Y-73266109D01*
X143124999Y-73266109D02*
X143244047Y-73266109D01*
X142720237Y-73266109D02*
X142624999Y-73266109D01*
X142624999Y-73266109D02*
X142577380Y-73242300D01*
X142577380Y-73242300D02*
X142553571Y-73218490D01*
X142553571Y-73218490D02*
X142505952Y-73147061D01*
X142505952Y-73147061D02*
X142482142Y-73051823D01*
X142482142Y-73051823D02*
X142482142Y-72861347D01*
X142482142Y-72861347D02*
X142505952Y-72813728D01*
X142505952Y-72813728D02*
X142529761Y-72789919D01*
X142529761Y-72789919D02*
X142577380Y-72766109D01*
X142577380Y-72766109D02*
X142672618Y-72766109D01*
X142672618Y-72766109D02*
X142720237Y-72789919D01*
X142720237Y-72789919D02*
X142744047Y-72813728D01*
X142744047Y-72813728D02*
X142767856Y-72861347D01*
X142767856Y-72861347D02*
X142767856Y-72980395D01*
X142767856Y-72980395D02*
X142744047Y-73028014D01*
X142744047Y-73028014D02*
X142720237Y-73051823D01*
X142720237Y-73051823D02*
X142672618Y-73075633D01*
X142672618Y-73075633D02*
X142577380Y-73075633D01*
X142577380Y-73075633D02*
X142529761Y-73051823D01*
X142529761Y-73051823D02*
X142505952Y-73028014D01*
X142505952Y-73028014D02*
X142482142Y-72980395D01*
X124432142Y-73251109D02*
X124432142Y-72751109D01*
X124432142Y-72751109D02*
X124313094Y-72751109D01*
X124313094Y-72751109D02*
X124241666Y-72774919D01*
X124241666Y-72774919D02*
X124194047Y-72822538D01*
X124194047Y-72822538D02*
X124170237Y-72870157D01*
X124170237Y-72870157D02*
X124146428Y-72965395D01*
X124146428Y-72965395D02*
X124146428Y-73036823D01*
X124146428Y-73036823D02*
X124170237Y-73132061D01*
X124170237Y-73132061D02*
X124194047Y-73179680D01*
X124194047Y-73179680D02*
X124241666Y-73227300D01*
X124241666Y-73227300D02*
X124313094Y-73251109D01*
X124313094Y-73251109D02*
X124432142Y-73251109D01*
X123670237Y-73251109D02*
X123955951Y-73251109D01*
X123813094Y-73251109D02*
X123813094Y-72751109D01*
X123813094Y-72751109D02*
X123860713Y-72822538D01*
X123860713Y-72822538D02*
X123908332Y-72870157D01*
X123908332Y-72870157D02*
X123955951Y-72893966D01*
X123360714Y-72751109D02*
X123313095Y-72751109D01*
X123313095Y-72751109D02*
X123265476Y-72774919D01*
X123265476Y-72774919D02*
X123241666Y-72798728D01*
X123241666Y-72798728D02*
X123217857Y-72846347D01*
X123217857Y-72846347D02*
X123194047Y-72941585D01*
X123194047Y-72941585D02*
X123194047Y-73060633D01*
X123194047Y-73060633D02*
X123217857Y-73155871D01*
X123217857Y-73155871D02*
X123241666Y-73203490D01*
X123241666Y-73203490D02*
X123265476Y-73227300D01*
X123265476Y-73227300D02*
X123313095Y-73251109D01*
X123313095Y-73251109D02*
X123360714Y-73251109D01*
X123360714Y-73251109D02*
X123408333Y-73227300D01*
X123408333Y-73227300D02*
X123432142Y-73203490D01*
X123432142Y-73203490D02*
X123455952Y-73155871D01*
X123455952Y-73155871D02*
X123479761Y-73060633D01*
X123479761Y-73060633D02*
X123479761Y-72941585D01*
X123479761Y-72941585D02*
X123455952Y-72846347D01*
X123455952Y-72846347D02*
X123432142Y-72798728D01*
X123432142Y-72798728D02*
X123408333Y-72774919D01*
X123408333Y-72774919D02*
X123360714Y-72751109D01*
%TO.C,D9*%
X143675000Y-74440000D02*
X144475000Y-73640000D01*
X141275000Y-71640000D02*
X144475000Y-71640000D01*
X144475000Y-74440000D01*
X141275000Y-74440000D01*
X141275000Y-71640000D01*
%TO.C,D10*%
X124625000Y-74425000D02*
X125425000Y-73625000D01*
X122225000Y-71625000D02*
X125425000Y-71625000D01*
X125425000Y-74425000D01*
X122225000Y-74425000D01*
X122225000Y-71625000D01*
%TD*%
M02*
