%TF.GenerationSoftware,KiCad,Pcbnew,10.0.5*%
%TF.CreationDate,2026-08-13T11:31:52+05:30*%
%TF.ProjectId,Pokeyboardy,506f6b65-7962-46f6-9172-64792e6b6963,rev?*%
%TF.SameCoordinates,Original*%
%TF.FileFunction,AssemblyDrawing,Top*%
%FSLAX46Y46*%
G04 Gerber Fmt 4.6, Leading zero omitted, Abs format (unit mm)*
G04 Created by KiCad (PCBNEW 10.0.5) date 2026-08-13 11:31:52*
%MOMM*%
%LPD*%
G01*
G04 APERTURE LIST*
%ADD10C,0.150000*%
%ADD11C,0.120000*%
%ADD12C,0.100000*%
%ADD13C,0.025400*%
G04 APERTURE END LIST*
D10*
X93314819Y-69839716D02*
X92314819Y-69839716D01*
X92314819Y-69839716D02*
X92314819Y-69601621D01*
X92314819Y-69601621D02*
X92362438Y-69458764D01*
X92362438Y-69458764D02*
X92457676Y-69363526D01*
X92457676Y-69363526D02*
X92552914Y-69315907D01*
X92552914Y-69315907D02*
X92743390Y-69268288D01*
X92743390Y-69268288D02*
X92886247Y-69268288D01*
X92886247Y-69268288D02*
X93076723Y-69315907D01*
X93076723Y-69315907D02*
X93171961Y-69363526D01*
X93171961Y-69363526D02*
X93267200Y-69458764D01*
X93267200Y-69458764D02*
X93314819Y-69601621D01*
X93314819Y-69601621D02*
X93314819Y-69839716D01*
X93314819Y-68839716D02*
X92648152Y-68839716D01*
X92314819Y-68839716D02*
X92362438Y-68887335D01*
X92362438Y-68887335D02*
X92410057Y-68839716D01*
X92410057Y-68839716D02*
X92362438Y-68792097D01*
X92362438Y-68792097D02*
X92314819Y-68839716D01*
X92314819Y-68839716D02*
X92410057Y-68839716D01*
X93314819Y-68220669D02*
X93267200Y-68315907D01*
X93267200Y-68315907D02*
X93219580Y-68363526D01*
X93219580Y-68363526D02*
X93124342Y-68411145D01*
X93124342Y-68411145D02*
X92838628Y-68411145D01*
X92838628Y-68411145D02*
X92743390Y-68363526D01*
X92743390Y-68363526D02*
X92695771Y-68315907D01*
X92695771Y-68315907D02*
X92648152Y-68220669D01*
X92648152Y-68220669D02*
X92648152Y-68077812D01*
X92648152Y-68077812D02*
X92695771Y-67982574D01*
X92695771Y-67982574D02*
X92743390Y-67934955D01*
X92743390Y-67934955D02*
X92838628Y-67887336D01*
X92838628Y-67887336D02*
X93124342Y-67887336D01*
X93124342Y-67887336D02*
X93219580Y-67934955D01*
X93219580Y-67934955D02*
X93267200Y-67982574D01*
X93267200Y-67982574D02*
X93314819Y-68077812D01*
X93314819Y-68077812D02*
X93314819Y-68220669D01*
X93314819Y-67030193D02*
X92314819Y-67030193D01*
X93267200Y-67030193D02*
X93314819Y-67125431D01*
X93314819Y-67125431D02*
X93314819Y-67315907D01*
X93314819Y-67315907D02*
X93267200Y-67411145D01*
X93267200Y-67411145D02*
X93219580Y-67458764D01*
X93219580Y-67458764D02*
X93124342Y-67506383D01*
X93124342Y-67506383D02*
X92838628Y-67506383D01*
X92838628Y-67506383D02*
X92743390Y-67458764D01*
X92743390Y-67458764D02*
X92695771Y-67411145D01*
X92695771Y-67411145D02*
X92648152Y-67315907D01*
X92648152Y-67315907D02*
X92648152Y-67125431D01*
X92648152Y-67125431D02*
X92695771Y-67030193D01*
X93267200Y-66173050D02*
X93314819Y-66268288D01*
X93314819Y-66268288D02*
X93314819Y-66458764D01*
X93314819Y-66458764D02*
X93267200Y-66554002D01*
X93267200Y-66554002D02*
X93171961Y-66601621D01*
X93171961Y-66601621D02*
X92791009Y-66601621D01*
X92791009Y-66601621D02*
X92695771Y-66554002D01*
X92695771Y-66554002D02*
X92648152Y-66458764D01*
X92648152Y-66458764D02*
X92648152Y-66268288D01*
X92648152Y-66268288D02*
X92695771Y-66173050D01*
X92695771Y-66173050D02*
X92791009Y-66125431D01*
X92791009Y-66125431D02*
X92886247Y-66125431D01*
X92886247Y-66125431D02*
X92981485Y-66601621D01*
D11*
X95343855Y-68896859D02*
X94543855Y-68896859D01*
X94543855Y-68896859D02*
X94543855Y-68706383D01*
X94543855Y-68706383D02*
X94581950Y-68592097D01*
X94581950Y-68592097D02*
X94658140Y-68515907D01*
X94658140Y-68515907D02*
X94734331Y-68477812D01*
X94734331Y-68477812D02*
X94886712Y-68439716D01*
X94886712Y-68439716D02*
X95000998Y-68439716D01*
X95000998Y-68439716D02*
X95153379Y-68477812D01*
X95153379Y-68477812D02*
X95229569Y-68515907D01*
X95229569Y-68515907D02*
X95305760Y-68592097D01*
X95305760Y-68592097D02*
X95343855Y-68706383D01*
X95343855Y-68706383D02*
X95343855Y-68896859D01*
X94543855Y-68173050D02*
X94543855Y-67677812D01*
X94543855Y-67677812D02*
X94848617Y-67944478D01*
X94848617Y-67944478D02*
X94848617Y-67830193D01*
X94848617Y-67830193D02*
X94886712Y-67754002D01*
X94886712Y-67754002D02*
X94924807Y-67715907D01*
X94924807Y-67715907D02*
X95000998Y-67677812D01*
X95000998Y-67677812D02*
X95191474Y-67677812D01*
X95191474Y-67677812D02*
X95267664Y-67715907D01*
X95267664Y-67715907D02*
X95305760Y-67754002D01*
X95305760Y-67754002D02*
X95343855Y-67830193D01*
X95343855Y-67830193D02*
X95343855Y-68058764D01*
X95343855Y-68058764D02*
X95305760Y-68134955D01*
X95305760Y-68134955D02*
X95267664Y-68173050D01*
D10*
X158520238Y-90878819D02*
X158520238Y-89878819D01*
X159091666Y-90878819D02*
X158663095Y-90307390D01*
X159091666Y-89878819D02*
X158520238Y-90450247D01*
X159901190Y-90831200D02*
X159805952Y-90878819D01*
X159805952Y-90878819D02*
X159615476Y-90878819D01*
X159615476Y-90878819D02*
X159520238Y-90831200D01*
X159520238Y-90831200D02*
X159472619Y-90735961D01*
X159472619Y-90735961D02*
X159472619Y-90355009D01*
X159472619Y-90355009D02*
X159520238Y-90259771D01*
X159520238Y-90259771D02*
X159615476Y-90212152D01*
X159615476Y-90212152D02*
X159805952Y-90212152D01*
X159805952Y-90212152D02*
X159901190Y-90259771D01*
X159901190Y-90259771D02*
X159948809Y-90355009D01*
X159948809Y-90355009D02*
X159948809Y-90450247D01*
X159948809Y-90450247D02*
X159472619Y-90545485D01*
X160282143Y-90212152D02*
X160520238Y-90878819D01*
X160758333Y-90212152D02*
X160520238Y-90878819D01*
X160520238Y-90878819D02*
X160425000Y-91116914D01*
X160425000Y-91116914D02*
X160377381Y-91164533D01*
X160377381Y-91164533D02*
X160282143Y-91212152D01*
X161091667Y-90831200D02*
X161186905Y-90878819D01*
X161186905Y-90878819D02*
X161377381Y-90878819D01*
X161377381Y-90878819D02*
X161472619Y-90831200D01*
X161472619Y-90831200D02*
X161520238Y-90735961D01*
X161520238Y-90735961D02*
X161520238Y-90688342D01*
X161520238Y-90688342D02*
X161472619Y-90593104D01*
X161472619Y-90593104D02*
X161377381Y-90545485D01*
X161377381Y-90545485D02*
X161234524Y-90545485D01*
X161234524Y-90545485D02*
X161139286Y-90497866D01*
X161139286Y-90497866D02*
X161091667Y-90402628D01*
X161091667Y-90402628D02*
X161091667Y-90355009D01*
X161091667Y-90355009D02*
X161139286Y-90259771D01*
X161139286Y-90259771D02*
X161234524Y-90212152D01*
X161234524Y-90212152D02*
X161377381Y-90212152D01*
X161377381Y-90212152D02*
X161472619Y-90259771D01*
X161853572Y-90212152D02*
X162044048Y-90878819D01*
X162044048Y-90878819D02*
X162234524Y-90402628D01*
X162234524Y-90402628D02*
X162425000Y-90878819D01*
X162425000Y-90878819D02*
X162615476Y-90212152D01*
X162996429Y-90878819D02*
X162996429Y-90212152D01*
X162996429Y-89878819D02*
X162948810Y-89926438D01*
X162948810Y-89926438D02*
X162996429Y-89974057D01*
X162996429Y-89974057D02*
X163044048Y-89926438D01*
X163044048Y-89926438D02*
X162996429Y-89878819D01*
X162996429Y-89878819D02*
X162996429Y-89974057D01*
X163329762Y-90212152D02*
X163710714Y-90212152D01*
X163472619Y-89878819D02*
X163472619Y-90735961D01*
X163472619Y-90735961D02*
X163520238Y-90831200D01*
X163520238Y-90831200D02*
X163615476Y-90878819D01*
X163615476Y-90878819D02*
X163710714Y-90878819D01*
X164472619Y-90831200D02*
X164377381Y-90878819D01*
X164377381Y-90878819D02*
X164186905Y-90878819D01*
X164186905Y-90878819D02*
X164091667Y-90831200D01*
X164091667Y-90831200D02*
X164044048Y-90783580D01*
X164044048Y-90783580D02*
X163996429Y-90688342D01*
X163996429Y-90688342D02*
X163996429Y-90402628D01*
X163996429Y-90402628D02*
X164044048Y-90307390D01*
X164044048Y-90307390D02*
X164091667Y-90259771D01*
X164091667Y-90259771D02*
X164186905Y-90212152D01*
X164186905Y-90212152D02*
X164377381Y-90212152D01*
X164377381Y-90212152D02*
X164472619Y-90259771D01*
X164901191Y-90878819D02*
X164901191Y-89878819D01*
X165329762Y-90878819D02*
X165329762Y-90355009D01*
X165329762Y-90355009D02*
X165282143Y-90259771D01*
X165282143Y-90259771D02*
X165186905Y-90212152D01*
X165186905Y-90212152D02*
X165044048Y-90212152D01*
X165044048Y-90212152D02*
X164948810Y-90259771D01*
X164948810Y-90259771D02*
X164901191Y-90307390D01*
X161163095Y-75083200D02*
X161305952Y-75130819D01*
X161305952Y-75130819D02*
X161544047Y-75130819D01*
X161544047Y-75130819D02*
X161639285Y-75083200D01*
X161639285Y-75083200D02*
X161686904Y-75035580D01*
X161686904Y-75035580D02*
X161734523Y-74940342D01*
X161734523Y-74940342D02*
X161734523Y-74845104D01*
X161734523Y-74845104D02*
X161686904Y-74749866D01*
X161686904Y-74749866D02*
X161639285Y-74702247D01*
X161639285Y-74702247D02*
X161544047Y-74654628D01*
X161544047Y-74654628D02*
X161353571Y-74607009D01*
X161353571Y-74607009D02*
X161258333Y-74559390D01*
X161258333Y-74559390D02*
X161210714Y-74511771D01*
X161210714Y-74511771D02*
X161163095Y-74416533D01*
X161163095Y-74416533D02*
X161163095Y-74321295D01*
X161163095Y-74321295D02*
X161210714Y-74226057D01*
X161210714Y-74226057D02*
X161258333Y-74178438D01*
X161258333Y-74178438D02*
X161353571Y-74130819D01*
X161353571Y-74130819D02*
X161591666Y-74130819D01*
X161591666Y-74130819D02*
X161734523Y-74178438D01*
X162067857Y-74130819D02*
X162686904Y-74130819D01*
X162686904Y-74130819D02*
X162353571Y-74511771D01*
X162353571Y-74511771D02*
X162496428Y-74511771D01*
X162496428Y-74511771D02*
X162591666Y-74559390D01*
X162591666Y-74559390D02*
X162639285Y-74607009D01*
X162639285Y-74607009D02*
X162686904Y-74702247D01*
X162686904Y-74702247D02*
X162686904Y-74940342D01*
X162686904Y-74940342D02*
X162639285Y-75035580D01*
X162639285Y-75035580D02*
X162591666Y-75083200D01*
X162591666Y-75083200D02*
X162496428Y-75130819D01*
X162496428Y-75130819D02*
X162210714Y-75130819D01*
X162210714Y-75130819D02*
X162115476Y-75083200D01*
X162115476Y-75083200D02*
X162067857Y-75035580D01*
X89812319Y-69839717D02*
X88812319Y-69839717D01*
X88812319Y-69839717D02*
X88812319Y-69601622D01*
X88812319Y-69601622D02*
X88859938Y-69458765D01*
X88859938Y-69458765D02*
X88955176Y-69363527D01*
X88955176Y-69363527D02*
X89050414Y-69315908D01*
X89050414Y-69315908D02*
X89240890Y-69268289D01*
X89240890Y-69268289D02*
X89383747Y-69268289D01*
X89383747Y-69268289D02*
X89574223Y-69315908D01*
X89574223Y-69315908D02*
X89669461Y-69363527D01*
X89669461Y-69363527D02*
X89764700Y-69458765D01*
X89764700Y-69458765D02*
X89812319Y-69601622D01*
X89812319Y-69601622D02*
X89812319Y-69839717D01*
X89812319Y-68839717D02*
X89145652Y-68839717D01*
X88812319Y-68839717D02*
X88859938Y-68887336D01*
X88859938Y-68887336D02*
X88907557Y-68839717D01*
X88907557Y-68839717D02*
X88859938Y-68792098D01*
X88859938Y-68792098D02*
X88812319Y-68839717D01*
X88812319Y-68839717D02*
X88907557Y-68839717D01*
X89812319Y-68220670D02*
X89764700Y-68315908D01*
X89764700Y-68315908D02*
X89717080Y-68363527D01*
X89717080Y-68363527D02*
X89621842Y-68411146D01*
X89621842Y-68411146D02*
X89336128Y-68411146D01*
X89336128Y-68411146D02*
X89240890Y-68363527D01*
X89240890Y-68363527D02*
X89193271Y-68315908D01*
X89193271Y-68315908D02*
X89145652Y-68220670D01*
X89145652Y-68220670D02*
X89145652Y-68077813D01*
X89145652Y-68077813D02*
X89193271Y-67982575D01*
X89193271Y-67982575D02*
X89240890Y-67934956D01*
X89240890Y-67934956D02*
X89336128Y-67887337D01*
X89336128Y-67887337D02*
X89621842Y-67887337D01*
X89621842Y-67887337D02*
X89717080Y-67934956D01*
X89717080Y-67934956D02*
X89764700Y-67982575D01*
X89764700Y-67982575D02*
X89812319Y-68077813D01*
X89812319Y-68077813D02*
X89812319Y-68220670D01*
X89812319Y-67030194D02*
X88812319Y-67030194D01*
X89764700Y-67030194D02*
X89812319Y-67125432D01*
X89812319Y-67125432D02*
X89812319Y-67315908D01*
X89812319Y-67315908D02*
X89764700Y-67411146D01*
X89764700Y-67411146D02*
X89717080Y-67458765D01*
X89717080Y-67458765D02*
X89621842Y-67506384D01*
X89621842Y-67506384D02*
X89336128Y-67506384D01*
X89336128Y-67506384D02*
X89240890Y-67458765D01*
X89240890Y-67458765D02*
X89193271Y-67411146D01*
X89193271Y-67411146D02*
X89145652Y-67315908D01*
X89145652Y-67315908D02*
X89145652Y-67125432D01*
X89145652Y-67125432D02*
X89193271Y-67030194D01*
X89764700Y-66173051D02*
X89812319Y-66268289D01*
X89812319Y-66268289D02*
X89812319Y-66458765D01*
X89812319Y-66458765D02*
X89764700Y-66554003D01*
X89764700Y-66554003D02*
X89669461Y-66601622D01*
X89669461Y-66601622D02*
X89288509Y-66601622D01*
X89288509Y-66601622D02*
X89193271Y-66554003D01*
X89193271Y-66554003D02*
X89145652Y-66458765D01*
X89145652Y-66458765D02*
X89145652Y-66268289D01*
X89145652Y-66268289D02*
X89193271Y-66173051D01*
X89193271Y-66173051D02*
X89288509Y-66125432D01*
X89288509Y-66125432D02*
X89383747Y-66125432D01*
X89383747Y-66125432D02*
X89478985Y-66601622D01*
D11*
X91841355Y-68896860D02*
X91041355Y-68896860D01*
X91041355Y-68896860D02*
X91041355Y-68706384D01*
X91041355Y-68706384D02*
X91079450Y-68592098D01*
X91079450Y-68592098D02*
X91155640Y-68515908D01*
X91155640Y-68515908D02*
X91231831Y-68477813D01*
X91231831Y-68477813D02*
X91384212Y-68439717D01*
X91384212Y-68439717D02*
X91498498Y-68439717D01*
X91498498Y-68439717D02*
X91650879Y-68477813D01*
X91650879Y-68477813D02*
X91727069Y-68515908D01*
X91727069Y-68515908D02*
X91803260Y-68592098D01*
X91803260Y-68592098D02*
X91841355Y-68706384D01*
X91841355Y-68706384D02*
X91841355Y-68896860D01*
X91041355Y-67754003D02*
X91041355Y-67906384D01*
X91041355Y-67906384D02*
X91079450Y-67982575D01*
X91079450Y-67982575D02*
X91117545Y-68020670D01*
X91117545Y-68020670D02*
X91231831Y-68096860D01*
X91231831Y-68096860D02*
X91384212Y-68134956D01*
X91384212Y-68134956D02*
X91688974Y-68134956D01*
X91688974Y-68134956D02*
X91765164Y-68096860D01*
X91765164Y-68096860D02*
X91803260Y-68058765D01*
X91803260Y-68058765D02*
X91841355Y-67982575D01*
X91841355Y-67982575D02*
X91841355Y-67830194D01*
X91841355Y-67830194D02*
X91803260Y-67754003D01*
X91803260Y-67754003D02*
X91765164Y-67715908D01*
X91765164Y-67715908D02*
X91688974Y-67677813D01*
X91688974Y-67677813D02*
X91498498Y-67677813D01*
X91498498Y-67677813D02*
X91422307Y-67715908D01*
X91422307Y-67715908D02*
X91384212Y-67754003D01*
X91384212Y-67754003D02*
X91346117Y-67830194D01*
X91346117Y-67830194D02*
X91346117Y-67982575D01*
X91346117Y-67982575D02*
X91384212Y-68058765D01*
X91384212Y-68058765D02*
X91422307Y-68096860D01*
X91422307Y-68096860D02*
X91498498Y-68134956D01*
D10*
X139470238Y-71828819D02*
X139470238Y-70828819D01*
X140041666Y-71828819D02*
X139613095Y-71257390D01*
X140041666Y-70828819D02*
X139470238Y-71400247D01*
X140851190Y-71781200D02*
X140755952Y-71828819D01*
X140755952Y-71828819D02*
X140565476Y-71828819D01*
X140565476Y-71828819D02*
X140470238Y-71781200D01*
X140470238Y-71781200D02*
X140422619Y-71685961D01*
X140422619Y-71685961D02*
X140422619Y-71305009D01*
X140422619Y-71305009D02*
X140470238Y-71209771D01*
X140470238Y-71209771D02*
X140565476Y-71162152D01*
X140565476Y-71162152D02*
X140755952Y-71162152D01*
X140755952Y-71162152D02*
X140851190Y-71209771D01*
X140851190Y-71209771D02*
X140898809Y-71305009D01*
X140898809Y-71305009D02*
X140898809Y-71400247D01*
X140898809Y-71400247D02*
X140422619Y-71495485D01*
X141232143Y-71162152D02*
X141470238Y-71828819D01*
X141708333Y-71162152D02*
X141470238Y-71828819D01*
X141470238Y-71828819D02*
X141375000Y-72066914D01*
X141375000Y-72066914D02*
X141327381Y-72114533D01*
X141327381Y-72114533D02*
X141232143Y-72162152D01*
X142041667Y-71781200D02*
X142136905Y-71828819D01*
X142136905Y-71828819D02*
X142327381Y-71828819D01*
X142327381Y-71828819D02*
X142422619Y-71781200D01*
X142422619Y-71781200D02*
X142470238Y-71685961D01*
X142470238Y-71685961D02*
X142470238Y-71638342D01*
X142470238Y-71638342D02*
X142422619Y-71543104D01*
X142422619Y-71543104D02*
X142327381Y-71495485D01*
X142327381Y-71495485D02*
X142184524Y-71495485D01*
X142184524Y-71495485D02*
X142089286Y-71447866D01*
X142089286Y-71447866D02*
X142041667Y-71352628D01*
X142041667Y-71352628D02*
X142041667Y-71305009D01*
X142041667Y-71305009D02*
X142089286Y-71209771D01*
X142089286Y-71209771D02*
X142184524Y-71162152D01*
X142184524Y-71162152D02*
X142327381Y-71162152D01*
X142327381Y-71162152D02*
X142422619Y-71209771D01*
X142803572Y-71162152D02*
X142994048Y-71828819D01*
X142994048Y-71828819D02*
X143184524Y-71352628D01*
X143184524Y-71352628D02*
X143375000Y-71828819D01*
X143375000Y-71828819D02*
X143565476Y-71162152D01*
X143946429Y-71828819D02*
X143946429Y-71162152D01*
X143946429Y-70828819D02*
X143898810Y-70876438D01*
X143898810Y-70876438D02*
X143946429Y-70924057D01*
X143946429Y-70924057D02*
X143994048Y-70876438D01*
X143994048Y-70876438D02*
X143946429Y-70828819D01*
X143946429Y-70828819D02*
X143946429Y-70924057D01*
X144279762Y-71162152D02*
X144660714Y-71162152D01*
X144422619Y-70828819D02*
X144422619Y-71685961D01*
X144422619Y-71685961D02*
X144470238Y-71781200D01*
X144470238Y-71781200D02*
X144565476Y-71828819D01*
X144565476Y-71828819D02*
X144660714Y-71828819D01*
X145422619Y-71781200D02*
X145327381Y-71828819D01*
X145327381Y-71828819D02*
X145136905Y-71828819D01*
X145136905Y-71828819D02*
X145041667Y-71781200D01*
X145041667Y-71781200D02*
X144994048Y-71733580D01*
X144994048Y-71733580D02*
X144946429Y-71638342D01*
X144946429Y-71638342D02*
X144946429Y-71352628D01*
X144946429Y-71352628D02*
X144994048Y-71257390D01*
X144994048Y-71257390D02*
X145041667Y-71209771D01*
X145041667Y-71209771D02*
X145136905Y-71162152D01*
X145136905Y-71162152D02*
X145327381Y-71162152D01*
X145327381Y-71162152D02*
X145422619Y-71209771D01*
X145851191Y-71828819D02*
X145851191Y-70828819D01*
X146279762Y-71828819D02*
X146279762Y-71305009D01*
X146279762Y-71305009D02*
X146232143Y-71209771D01*
X146232143Y-71209771D02*
X146136905Y-71162152D01*
X146136905Y-71162152D02*
X145994048Y-71162152D01*
X145994048Y-71162152D02*
X145898810Y-71209771D01*
X145898810Y-71209771D02*
X145851191Y-71257390D01*
X142113095Y-56033200D02*
X142255952Y-56080819D01*
X142255952Y-56080819D02*
X142494047Y-56080819D01*
X142494047Y-56080819D02*
X142589285Y-56033200D01*
X142589285Y-56033200D02*
X142636904Y-55985580D01*
X142636904Y-55985580D02*
X142684523Y-55890342D01*
X142684523Y-55890342D02*
X142684523Y-55795104D01*
X142684523Y-55795104D02*
X142636904Y-55699866D01*
X142636904Y-55699866D02*
X142589285Y-55652247D01*
X142589285Y-55652247D02*
X142494047Y-55604628D01*
X142494047Y-55604628D02*
X142303571Y-55557009D01*
X142303571Y-55557009D02*
X142208333Y-55509390D01*
X142208333Y-55509390D02*
X142160714Y-55461771D01*
X142160714Y-55461771D02*
X142113095Y-55366533D01*
X142113095Y-55366533D02*
X142113095Y-55271295D01*
X142113095Y-55271295D02*
X142160714Y-55176057D01*
X142160714Y-55176057D02*
X142208333Y-55128438D01*
X142208333Y-55128438D02*
X142303571Y-55080819D01*
X142303571Y-55080819D02*
X142541666Y-55080819D01*
X142541666Y-55080819D02*
X142684523Y-55128438D01*
X143065476Y-55176057D02*
X143113095Y-55128438D01*
X143113095Y-55128438D02*
X143208333Y-55080819D01*
X143208333Y-55080819D02*
X143446428Y-55080819D01*
X143446428Y-55080819D02*
X143541666Y-55128438D01*
X143541666Y-55128438D02*
X143589285Y-55176057D01*
X143589285Y-55176057D02*
X143636904Y-55271295D01*
X143636904Y-55271295D02*
X143636904Y-55366533D01*
X143636904Y-55366533D02*
X143589285Y-55509390D01*
X143589285Y-55509390D02*
X143017857Y-56080819D01*
X143017857Y-56080819D02*
X143636904Y-56080819D01*
X96814819Y-69839716D02*
X95814819Y-69839716D01*
X95814819Y-69839716D02*
X95814819Y-69601621D01*
X95814819Y-69601621D02*
X95862438Y-69458764D01*
X95862438Y-69458764D02*
X95957676Y-69363526D01*
X95957676Y-69363526D02*
X96052914Y-69315907D01*
X96052914Y-69315907D02*
X96243390Y-69268288D01*
X96243390Y-69268288D02*
X96386247Y-69268288D01*
X96386247Y-69268288D02*
X96576723Y-69315907D01*
X96576723Y-69315907D02*
X96671961Y-69363526D01*
X96671961Y-69363526D02*
X96767200Y-69458764D01*
X96767200Y-69458764D02*
X96814819Y-69601621D01*
X96814819Y-69601621D02*
X96814819Y-69839716D01*
X96814819Y-68839716D02*
X96148152Y-68839716D01*
X95814819Y-68839716D02*
X95862438Y-68887335D01*
X95862438Y-68887335D02*
X95910057Y-68839716D01*
X95910057Y-68839716D02*
X95862438Y-68792097D01*
X95862438Y-68792097D02*
X95814819Y-68839716D01*
X95814819Y-68839716D02*
X95910057Y-68839716D01*
X96814819Y-68220669D02*
X96767200Y-68315907D01*
X96767200Y-68315907D02*
X96719580Y-68363526D01*
X96719580Y-68363526D02*
X96624342Y-68411145D01*
X96624342Y-68411145D02*
X96338628Y-68411145D01*
X96338628Y-68411145D02*
X96243390Y-68363526D01*
X96243390Y-68363526D02*
X96195771Y-68315907D01*
X96195771Y-68315907D02*
X96148152Y-68220669D01*
X96148152Y-68220669D02*
X96148152Y-68077812D01*
X96148152Y-68077812D02*
X96195771Y-67982574D01*
X96195771Y-67982574D02*
X96243390Y-67934955D01*
X96243390Y-67934955D02*
X96338628Y-67887336D01*
X96338628Y-67887336D02*
X96624342Y-67887336D01*
X96624342Y-67887336D02*
X96719580Y-67934955D01*
X96719580Y-67934955D02*
X96767200Y-67982574D01*
X96767200Y-67982574D02*
X96814819Y-68077812D01*
X96814819Y-68077812D02*
X96814819Y-68220669D01*
X96814819Y-67030193D02*
X95814819Y-67030193D01*
X96767200Y-67030193D02*
X96814819Y-67125431D01*
X96814819Y-67125431D02*
X96814819Y-67315907D01*
X96814819Y-67315907D02*
X96767200Y-67411145D01*
X96767200Y-67411145D02*
X96719580Y-67458764D01*
X96719580Y-67458764D02*
X96624342Y-67506383D01*
X96624342Y-67506383D02*
X96338628Y-67506383D01*
X96338628Y-67506383D02*
X96243390Y-67458764D01*
X96243390Y-67458764D02*
X96195771Y-67411145D01*
X96195771Y-67411145D02*
X96148152Y-67315907D01*
X96148152Y-67315907D02*
X96148152Y-67125431D01*
X96148152Y-67125431D02*
X96195771Y-67030193D01*
X96767200Y-66173050D02*
X96814819Y-66268288D01*
X96814819Y-66268288D02*
X96814819Y-66458764D01*
X96814819Y-66458764D02*
X96767200Y-66554002D01*
X96767200Y-66554002D02*
X96671961Y-66601621D01*
X96671961Y-66601621D02*
X96291009Y-66601621D01*
X96291009Y-66601621D02*
X96195771Y-66554002D01*
X96195771Y-66554002D02*
X96148152Y-66458764D01*
X96148152Y-66458764D02*
X96148152Y-66268288D01*
X96148152Y-66268288D02*
X96195771Y-66173050D01*
X96195771Y-66173050D02*
X96291009Y-66125431D01*
X96291009Y-66125431D02*
X96386247Y-66125431D01*
X96386247Y-66125431D02*
X96481485Y-66601621D01*
D11*
X98843855Y-68896859D02*
X98043855Y-68896859D01*
X98043855Y-68896859D02*
X98043855Y-68706383D01*
X98043855Y-68706383D02*
X98081950Y-68592097D01*
X98081950Y-68592097D02*
X98158140Y-68515907D01*
X98158140Y-68515907D02*
X98234331Y-68477812D01*
X98234331Y-68477812D02*
X98386712Y-68439716D01*
X98386712Y-68439716D02*
X98500998Y-68439716D01*
X98500998Y-68439716D02*
X98653379Y-68477812D01*
X98653379Y-68477812D02*
X98729569Y-68515907D01*
X98729569Y-68515907D02*
X98805760Y-68592097D01*
X98805760Y-68592097D02*
X98843855Y-68706383D01*
X98843855Y-68706383D02*
X98843855Y-68896859D01*
X98043855Y-67715907D02*
X98043855Y-68096859D01*
X98043855Y-68096859D02*
X98424807Y-68134955D01*
X98424807Y-68134955D02*
X98386712Y-68096859D01*
X98386712Y-68096859D02*
X98348617Y-68020669D01*
X98348617Y-68020669D02*
X98348617Y-67830193D01*
X98348617Y-67830193D02*
X98386712Y-67754002D01*
X98386712Y-67754002D02*
X98424807Y-67715907D01*
X98424807Y-67715907D02*
X98500998Y-67677812D01*
X98500998Y-67677812D02*
X98691474Y-67677812D01*
X98691474Y-67677812D02*
X98767664Y-67715907D01*
X98767664Y-67715907D02*
X98805760Y-67754002D01*
X98805760Y-67754002D02*
X98843855Y-67830193D01*
X98843855Y-67830193D02*
X98843855Y-68020669D01*
X98843855Y-68020669D02*
X98805760Y-68096859D01*
X98805760Y-68096859D02*
X98767664Y-68134955D01*
D10*
X120420238Y-71828819D02*
X120420238Y-70828819D01*
X120991666Y-71828819D02*
X120563095Y-71257390D01*
X120991666Y-70828819D02*
X120420238Y-71400247D01*
X121801190Y-71781200D02*
X121705952Y-71828819D01*
X121705952Y-71828819D02*
X121515476Y-71828819D01*
X121515476Y-71828819D02*
X121420238Y-71781200D01*
X121420238Y-71781200D02*
X121372619Y-71685961D01*
X121372619Y-71685961D02*
X121372619Y-71305009D01*
X121372619Y-71305009D02*
X121420238Y-71209771D01*
X121420238Y-71209771D02*
X121515476Y-71162152D01*
X121515476Y-71162152D02*
X121705952Y-71162152D01*
X121705952Y-71162152D02*
X121801190Y-71209771D01*
X121801190Y-71209771D02*
X121848809Y-71305009D01*
X121848809Y-71305009D02*
X121848809Y-71400247D01*
X121848809Y-71400247D02*
X121372619Y-71495485D01*
X122182143Y-71162152D02*
X122420238Y-71828819D01*
X122658333Y-71162152D02*
X122420238Y-71828819D01*
X122420238Y-71828819D02*
X122325000Y-72066914D01*
X122325000Y-72066914D02*
X122277381Y-72114533D01*
X122277381Y-72114533D02*
X122182143Y-72162152D01*
X122991667Y-71781200D02*
X123086905Y-71828819D01*
X123086905Y-71828819D02*
X123277381Y-71828819D01*
X123277381Y-71828819D02*
X123372619Y-71781200D01*
X123372619Y-71781200D02*
X123420238Y-71685961D01*
X123420238Y-71685961D02*
X123420238Y-71638342D01*
X123420238Y-71638342D02*
X123372619Y-71543104D01*
X123372619Y-71543104D02*
X123277381Y-71495485D01*
X123277381Y-71495485D02*
X123134524Y-71495485D01*
X123134524Y-71495485D02*
X123039286Y-71447866D01*
X123039286Y-71447866D02*
X122991667Y-71352628D01*
X122991667Y-71352628D02*
X122991667Y-71305009D01*
X122991667Y-71305009D02*
X123039286Y-71209771D01*
X123039286Y-71209771D02*
X123134524Y-71162152D01*
X123134524Y-71162152D02*
X123277381Y-71162152D01*
X123277381Y-71162152D02*
X123372619Y-71209771D01*
X123753572Y-71162152D02*
X123944048Y-71828819D01*
X123944048Y-71828819D02*
X124134524Y-71352628D01*
X124134524Y-71352628D02*
X124325000Y-71828819D01*
X124325000Y-71828819D02*
X124515476Y-71162152D01*
X124896429Y-71828819D02*
X124896429Y-71162152D01*
X124896429Y-70828819D02*
X124848810Y-70876438D01*
X124848810Y-70876438D02*
X124896429Y-70924057D01*
X124896429Y-70924057D02*
X124944048Y-70876438D01*
X124944048Y-70876438D02*
X124896429Y-70828819D01*
X124896429Y-70828819D02*
X124896429Y-70924057D01*
X125229762Y-71162152D02*
X125610714Y-71162152D01*
X125372619Y-70828819D02*
X125372619Y-71685961D01*
X125372619Y-71685961D02*
X125420238Y-71781200D01*
X125420238Y-71781200D02*
X125515476Y-71828819D01*
X125515476Y-71828819D02*
X125610714Y-71828819D01*
X126372619Y-71781200D02*
X126277381Y-71828819D01*
X126277381Y-71828819D02*
X126086905Y-71828819D01*
X126086905Y-71828819D02*
X125991667Y-71781200D01*
X125991667Y-71781200D02*
X125944048Y-71733580D01*
X125944048Y-71733580D02*
X125896429Y-71638342D01*
X125896429Y-71638342D02*
X125896429Y-71352628D01*
X125896429Y-71352628D02*
X125944048Y-71257390D01*
X125944048Y-71257390D02*
X125991667Y-71209771D01*
X125991667Y-71209771D02*
X126086905Y-71162152D01*
X126086905Y-71162152D02*
X126277381Y-71162152D01*
X126277381Y-71162152D02*
X126372619Y-71209771D01*
X126801191Y-71828819D02*
X126801191Y-70828819D01*
X127229762Y-71828819D02*
X127229762Y-71305009D01*
X127229762Y-71305009D02*
X127182143Y-71209771D01*
X127182143Y-71209771D02*
X127086905Y-71162152D01*
X127086905Y-71162152D02*
X126944048Y-71162152D01*
X126944048Y-71162152D02*
X126848810Y-71209771D01*
X126848810Y-71209771D02*
X126801191Y-71257390D01*
X123063095Y-56033200D02*
X123205952Y-56080819D01*
X123205952Y-56080819D02*
X123444047Y-56080819D01*
X123444047Y-56080819D02*
X123539285Y-56033200D01*
X123539285Y-56033200D02*
X123586904Y-55985580D01*
X123586904Y-55985580D02*
X123634523Y-55890342D01*
X123634523Y-55890342D02*
X123634523Y-55795104D01*
X123634523Y-55795104D02*
X123586904Y-55699866D01*
X123586904Y-55699866D02*
X123539285Y-55652247D01*
X123539285Y-55652247D02*
X123444047Y-55604628D01*
X123444047Y-55604628D02*
X123253571Y-55557009D01*
X123253571Y-55557009D02*
X123158333Y-55509390D01*
X123158333Y-55509390D02*
X123110714Y-55461771D01*
X123110714Y-55461771D02*
X123063095Y-55366533D01*
X123063095Y-55366533D02*
X123063095Y-55271295D01*
X123063095Y-55271295D02*
X123110714Y-55176057D01*
X123110714Y-55176057D02*
X123158333Y-55128438D01*
X123158333Y-55128438D02*
X123253571Y-55080819D01*
X123253571Y-55080819D02*
X123491666Y-55080819D01*
X123491666Y-55080819D02*
X123634523Y-55128438D01*
X124586904Y-56080819D02*
X124015476Y-56080819D01*
X124301190Y-56080819D02*
X124301190Y-55080819D01*
X124301190Y-55080819D02*
X124205952Y-55223676D01*
X124205952Y-55223676D02*
X124110714Y-55318914D01*
X124110714Y-55318914D02*
X124015476Y-55366533D01*
X139470238Y-90878819D02*
X139470238Y-89878819D01*
X140041666Y-90878819D02*
X139613095Y-90307390D01*
X140041666Y-89878819D02*
X139470238Y-90450247D01*
X140851190Y-90831200D02*
X140755952Y-90878819D01*
X140755952Y-90878819D02*
X140565476Y-90878819D01*
X140565476Y-90878819D02*
X140470238Y-90831200D01*
X140470238Y-90831200D02*
X140422619Y-90735961D01*
X140422619Y-90735961D02*
X140422619Y-90355009D01*
X140422619Y-90355009D02*
X140470238Y-90259771D01*
X140470238Y-90259771D02*
X140565476Y-90212152D01*
X140565476Y-90212152D02*
X140755952Y-90212152D01*
X140755952Y-90212152D02*
X140851190Y-90259771D01*
X140851190Y-90259771D02*
X140898809Y-90355009D01*
X140898809Y-90355009D02*
X140898809Y-90450247D01*
X140898809Y-90450247D02*
X140422619Y-90545485D01*
X141232143Y-90212152D02*
X141470238Y-90878819D01*
X141708333Y-90212152D02*
X141470238Y-90878819D01*
X141470238Y-90878819D02*
X141375000Y-91116914D01*
X141375000Y-91116914D02*
X141327381Y-91164533D01*
X141327381Y-91164533D02*
X141232143Y-91212152D01*
X142041667Y-90831200D02*
X142136905Y-90878819D01*
X142136905Y-90878819D02*
X142327381Y-90878819D01*
X142327381Y-90878819D02*
X142422619Y-90831200D01*
X142422619Y-90831200D02*
X142470238Y-90735961D01*
X142470238Y-90735961D02*
X142470238Y-90688342D01*
X142470238Y-90688342D02*
X142422619Y-90593104D01*
X142422619Y-90593104D02*
X142327381Y-90545485D01*
X142327381Y-90545485D02*
X142184524Y-90545485D01*
X142184524Y-90545485D02*
X142089286Y-90497866D01*
X142089286Y-90497866D02*
X142041667Y-90402628D01*
X142041667Y-90402628D02*
X142041667Y-90355009D01*
X142041667Y-90355009D02*
X142089286Y-90259771D01*
X142089286Y-90259771D02*
X142184524Y-90212152D01*
X142184524Y-90212152D02*
X142327381Y-90212152D01*
X142327381Y-90212152D02*
X142422619Y-90259771D01*
X142803572Y-90212152D02*
X142994048Y-90878819D01*
X142994048Y-90878819D02*
X143184524Y-90402628D01*
X143184524Y-90402628D02*
X143375000Y-90878819D01*
X143375000Y-90878819D02*
X143565476Y-90212152D01*
X143946429Y-90878819D02*
X143946429Y-90212152D01*
X143946429Y-89878819D02*
X143898810Y-89926438D01*
X143898810Y-89926438D02*
X143946429Y-89974057D01*
X143946429Y-89974057D02*
X143994048Y-89926438D01*
X143994048Y-89926438D02*
X143946429Y-89878819D01*
X143946429Y-89878819D02*
X143946429Y-89974057D01*
X144279762Y-90212152D02*
X144660714Y-90212152D01*
X144422619Y-89878819D02*
X144422619Y-90735961D01*
X144422619Y-90735961D02*
X144470238Y-90831200D01*
X144470238Y-90831200D02*
X144565476Y-90878819D01*
X144565476Y-90878819D02*
X144660714Y-90878819D01*
X145422619Y-90831200D02*
X145327381Y-90878819D01*
X145327381Y-90878819D02*
X145136905Y-90878819D01*
X145136905Y-90878819D02*
X145041667Y-90831200D01*
X145041667Y-90831200D02*
X144994048Y-90783580D01*
X144994048Y-90783580D02*
X144946429Y-90688342D01*
X144946429Y-90688342D02*
X144946429Y-90402628D01*
X144946429Y-90402628D02*
X144994048Y-90307390D01*
X144994048Y-90307390D02*
X145041667Y-90259771D01*
X145041667Y-90259771D02*
X145136905Y-90212152D01*
X145136905Y-90212152D02*
X145327381Y-90212152D01*
X145327381Y-90212152D02*
X145422619Y-90259771D01*
X145851191Y-90878819D02*
X145851191Y-89878819D01*
X146279762Y-90878819D02*
X146279762Y-90355009D01*
X146279762Y-90355009D02*
X146232143Y-90259771D01*
X146232143Y-90259771D02*
X146136905Y-90212152D01*
X146136905Y-90212152D02*
X145994048Y-90212152D01*
X145994048Y-90212152D02*
X145898810Y-90259771D01*
X145898810Y-90259771D02*
X145851191Y-90307390D01*
X142113095Y-75083200D02*
X142255952Y-75130819D01*
X142255952Y-75130819D02*
X142494047Y-75130819D01*
X142494047Y-75130819D02*
X142589285Y-75083200D01*
X142589285Y-75083200D02*
X142636904Y-75035580D01*
X142636904Y-75035580D02*
X142684523Y-74940342D01*
X142684523Y-74940342D02*
X142684523Y-74845104D01*
X142684523Y-74845104D02*
X142636904Y-74749866D01*
X142636904Y-74749866D02*
X142589285Y-74702247D01*
X142589285Y-74702247D02*
X142494047Y-74654628D01*
X142494047Y-74654628D02*
X142303571Y-74607009D01*
X142303571Y-74607009D02*
X142208333Y-74559390D01*
X142208333Y-74559390D02*
X142160714Y-74511771D01*
X142160714Y-74511771D02*
X142113095Y-74416533D01*
X142113095Y-74416533D02*
X142113095Y-74321295D01*
X142113095Y-74321295D02*
X142160714Y-74226057D01*
X142160714Y-74226057D02*
X142208333Y-74178438D01*
X142208333Y-74178438D02*
X142303571Y-74130819D01*
X142303571Y-74130819D02*
X142541666Y-74130819D01*
X142541666Y-74130819D02*
X142684523Y-74178438D01*
X143589285Y-74130819D02*
X143113095Y-74130819D01*
X143113095Y-74130819D02*
X143065476Y-74607009D01*
X143065476Y-74607009D02*
X143113095Y-74559390D01*
X143113095Y-74559390D02*
X143208333Y-74511771D01*
X143208333Y-74511771D02*
X143446428Y-74511771D01*
X143446428Y-74511771D02*
X143541666Y-74559390D01*
X143541666Y-74559390D02*
X143589285Y-74607009D01*
X143589285Y-74607009D02*
X143636904Y-74702247D01*
X143636904Y-74702247D02*
X143636904Y-74940342D01*
X143636904Y-74940342D02*
X143589285Y-75035580D01*
X143589285Y-75035580D02*
X143541666Y-75083200D01*
X143541666Y-75083200D02*
X143446428Y-75130819D01*
X143446428Y-75130819D02*
X143208333Y-75130819D01*
X143208333Y-75130819D02*
X143113095Y-75083200D01*
X143113095Y-75083200D02*
X143065476Y-75035580D01*
X100314819Y-69839716D02*
X99314819Y-69839716D01*
X99314819Y-69839716D02*
X99314819Y-69601621D01*
X99314819Y-69601621D02*
X99362438Y-69458764D01*
X99362438Y-69458764D02*
X99457676Y-69363526D01*
X99457676Y-69363526D02*
X99552914Y-69315907D01*
X99552914Y-69315907D02*
X99743390Y-69268288D01*
X99743390Y-69268288D02*
X99886247Y-69268288D01*
X99886247Y-69268288D02*
X100076723Y-69315907D01*
X100076723Y-69315907D02*
X100171961Y-69363526D01*
X100171961Y-69363526D02*
X100267200Y-69458764D01*
X100267200Y-69458764D02*
X100314819Y-69601621D01*
X100314819Y-69601621D02*
X100314819Y-69839716D01*
X100314819Y-68839716D02*
X99648152Y-68839716D01*
X99314819Y-68839716D02*
X99362438Y-68887335D01*
X99362438Y-68887335D02*
X99410057Y-68839716D01*
X99410057Y-68839716D02*
X99362438Y-68792097D01*
X99362438Y-68792097D02*
X99314819Y-68839716D01*
X99314819Y-68839716D02*
X99410057Y-68839716D01*
X100314819Y-68220669D02*
X100267200Y-68315907D01*
X100267200Y-68315907D02*
X100219580Y-68363526D01*
X100219580Y-68363526D02*
X100124342Y-68411145D01*
X100124342Y-68411145D02*
X99838628Y-68411145D01*
X99838628Y-68411145D02*
X99743390Y-68363526D01*
X99743390Y-68363526D02*
X99695771Y-68315907D01*
X99695771Y-68315907D02*
X99648152Y-68220669D01*
X99648152Y-68220669D02*
X99648152Y-68077812D01*
X99648152Y-68077812D02*
X99695771Y-67982574D01*
X99695771Y-67982574D02*
X99743390Y-67934955D01*
X99743390Y-67934955D02*
X99838628Y-67887336D01*
X99838628Y-67887336D02*
X100124342Y-67887336D01*
X100124342Y-67887336D02*
X100219580Y-67934955D01*
X100219580Y-67934955D02*
X100267200Y-67982574D01*
X100267200Y-67982574D02*
X100314819Y-68077812D01*
X100314819Y-68077812D02*
X100314819Y-68220669D01*
X100314819Y-67030193D02*
X99314819Y-67030193D01*
X100267200Y-67030193D02*
X100314819Y-67125431D01*
X100314819Y-67125431D02*
X100314819Y-67315907D01*
X100314819Y-67315907D02*
X100267200Y-67411145D01*
X100267200Y-67411145D02*
X100219580Y-67458764D01*
X100219580Y-67458764D02*
X100124342Y-67506383D01*
X100124342Y-67506383D02*
X99838628Y-67506383D01*
X99838628Y-67506383D02*
X99743390Y-67458764D01*
X99743390Y-67458764D02*
X99695771Y-67411145D01*
X99695771Y-67411145D02*
X99648152Y-67315907D01*
X99648152Y-67315907D02*
X99648152Y-67125431D01*
X99648152Y-67125431D02*
X99695771Y-67030193D01*
X100267200Y-66173050D02*
X100314819Y-66268288D01*
X100314819Y-66268288D02*
X100314819Y-66458764D01*
X100314819Y-66458764D02*
X100267200Y-66554002D01*
X100267200Y-66554002D02*
X100171961Y-66601621D01*
X100171961Y-66601621D02*
X99791009Y-66601621D01*
X99791009Y-66601621D02*
X99695771Y-66554002D01*
X99695771Y-66554002D02*
X99648152Y-66458764D01*
X99648152Y-66458764D02*
X99648152Y-66268288D01*
X99648152Y-66268288D02*
X99695771Y-66173050D01*
X99695771Y-66173050D02*
X99791009Y-66125431D01*
X99791009Y-66125431D02*
X99886247Y-66125431D01*
X99886247Y-66125431D02*
X99981485Y-66601621D01*
D11*
X102343855Y-68896859D02*
X101543855Y-68896859D01*
X101543855Y-68896859D02*
X101543855Y-68706383D01*
X101543855Y-68706383D02*
X101581950Y-68592097D01*
X101581950Y-68592097D02*
X101658140Y-68515907D01*
X101658140Y-68515907D02*
X101734331Y-68477812D01*
X101734331Y-68477812D02*
X101886712Y-68439716D01*
X101886712Y-68439716D02*
X102000998Y-68439716D01*
X102000998Y-68439716D02*
X102153379Y-68477812D01*
X102153379Y-68477812D02*
X102229569Y-68515907D01*
X102229569Y-68515907D02*
X102305760Y-68592097D01*
X102305760Y-68592097D02*
X102343855Y-68706383D01*
X102343855Y-68706383D02*
X102343855Y-68896859D01*
X101810521Y-67754002D02*
X102343855Y-67754002D01*
X101505760Y-67944478D02*
X102077188Y-68134955D01*
X102077188Y-68134955D02*
X102077188Y-67639716D01*
D10*
X155201665Y-69104819D02*
X154868332Y-68628628D01*
X154630237Y-69104819D02*
X154630237Y-68104819D01*
X154630237Y-68104819D02*
X155011189Y-68104819D01*
X155011189Y-68104819D02*
X155106427Y-68152438D01*
X155106427Y-68152438D02*
X155154046Y-68200057D01*
X155154046Y-68200057D02*
X155201665Y-68295295D01*
X155201665Y-68295295D02*
X155201665Y-68438152D01*
X155201665Y-68438152D02*
X155154046Y-68533390D01*
X155154046Y-68533390D02*
X155106427Y-68581009D01*
X155106427Y-68581009D02*
X155011189Y-68628628D01*
X155011189Y-68628628D02*
X154630237Y-68628628D01*
X155773094Y-69104819D02*
X155677856Y-69057200D01*
X155677856Y-69057200D02*
X155630237Y-69009580D01*
X155630237Y-69009580D02*
X155582618Y-68914342D01*
X155582618Y-68914342D02*
X155582618Y-68628628D01*
X155582618Y-68628628D02*
X155630237Y-68533390D01*
X155630237Y-68533390D02*
X155677856Y-68485771D01*
X155677856Y-68485771D02*
X155773094Y-68438152D01*
X155773094Y-68438152D02*
X155915951Y-68438152D01*
X155915951Y-68438152D02*
X156011189Y-68485771D01*
X156011189Y-68485771D02*
X156058808Y-68533390D01*
X156058808Y-68533390D02*
X156106427Y-68628628D01*
X156106427Y-68628628D02*
X156106427Y-68914342D01*
X156106427Y-68914342D02*
X156058808Y-69009580D01*
X156058808Y-69009580D02*
X156011189Y-69057200D01*
X156011189Y-69057200D02*
X155915951Y-69104819D01*
X155915951Y-69104819D02*
X155773094Y-69104819D01*
X156392142Y-68438152D02*
X156773094Y-68438152D01*
X156534999Y-68104819D02*
X156534999Y-68961961D01*
X156534999Y-68961961D02*
X156582618Y-69057200D01*
X156582618Y-69057200D02*
X156677856Y-69104819D01*
X156677856Y-69104819D02*
X156773094Y-69104819D01*
X157534999Y-69104819D02*
X157534999Y-68581009D01*
X157534999Y-68581009D02*
X157487380Y-68485771D01*
X157487380Y-68485771D02*
X157392142Y-68438152D01*
X157392142Y-68438152D02*
X157201666Y-68438152D01*
X157201666Y-68438152D02*
X157106428Y-68485771D01*
X157534999Y-69057200D02*
X157439761Y-69104819D01*
X157439761Y-69104819D02*
X157201666Y-69104819D01*
X157201666Y-69104819D02*
X157106428Y-69057200D01*
X157106428Y-69057200D02*
X157058809Y-68961961D01*
X157058809Y-68961961D02*
X157058809Y-68866723D01*
X157058809Y-68866723D02*
X157106428Y-68771485D01*
X157106428Y-68771485D02*
X157201666Y-68723866D01*
X157201666Y-68723866D02*
X157439761Y-68723866D01*
X157439761Y-68723866D02*
X157534999Y-68676247D01*
X158011190Y-69104819D02*
X158011190Y-68438152D01*
X158011190Y-68628628D02*
X158058809Y-68533390D01*
X158058809Y-68533390D02*
X158106428Y-68485771D01*
X158106428Y-68485771D02*
X158201666Y-68438152D01*
X158201666Y-68438152D02*
X158296904Y-68438152D01*
X158535000Y-68438152D02*
X158773095Y-69104819D01*
X159011190Y-68438152D02*
X158773095Y-69104819D01*
X158773095Y-69104819D02*
X158677857Y-69342914D01*
X158677857Y-69342914D02*
X158630238Y-69390533D01*
X158630238Y-69390533D02*
X158535000Y-69438152D01*
X159392143Y-68581009D02*
X159725476Y-68581009D01*
X159868333Y-69104819D02*
X159392143Y-69104819D01*
X159392143Y-69104819D02*
X159392143Y-68104819D01*
X159392143Y-68104819D02*
X159868333Y-68104819D01*
X160296905Y-68438152D02*
X160296905Y-69104819D01*
X160296905Y-68533390D02*
X160344524Y-68485771D01*
X160344524Y-68485771D02*
X160439762Y-68438152D01*
X160439762Y-68438152D02*
X160582619Y-68438152D01*
X160582619Y-68438152D02*
X160677857Y-68485771D01*
X160677857Y-68485771D02*
X160725476Y-68581009D01*
X160725476Y-68581009D02*
X160725476Y-69104819D01*
X161630238Y-69057200D02*
X161535000Y-69104819D01*
X161535000Y-69104819D02*
X161344524Y-69104819D01*
X161344524Y-69104819D02*
X161249286Y-69057200D01*
X161249286Y-69057200D02*
X161201667Y-69009580D01*
X161201667Y-69009580D02*
X161154048Y-68914342D01*
X161154048Y-68914342D02*
X161154048Y-68628628D01*
X161154048Y-68628628D02*
X161201667Y-68533390D01*
X161201667Y-68533390D02*
X161249286Y-68485771D01*
X161249286Y-68485771D02*
X161344524Y-68438152D01*
X161344524Y-68438152D02*
X161535000Y-68438152D01*
X161535000Y-68438152D02*
X161630238Y-68485771D01*
X162201667Y-69104819D02*
X162106429Y-69057200D01*
X162106429Y-69057200D02*
X162058810Y-69009580D01*
X162058810Y-69009580D02*
X162011191Y-68914342D01*
X162011191Y-68914342D02*
X162011191Y-68628628D01*
X162011191Y-68628628D02*
X162058810Y-68533390D01*
X162058810Y-68533390D02*
X162106429Y-68485771D01*
X162106429Y-68485771D02*
X162201667Y-68438152D01*
X162201667Y-68438152D02*
X162344524Y-68438152D01*
X162344524Y-68438152D02*
X162439762Y-68485771D01*
X162439762Y-68485771D02*
X162487381Y-68533390D01*
X162487381Y-68533390D02*
X162535000Y-68628628D01*
X162535000Y-68628628D02*
X162535000Y-68914342D01*
X162535000Y-68914342D02*
X162487381Y-69009580D01*
X162487381Y-69009580D02*
X162439762Y-69057200D01*
X162439762Y-69057200D02*
X162344524Y-69104819D01*
X162344524Y-69104819D02*
X162201667Y-69104819D01*
X163392143Y-69104819D02*
X163392143Y-68104819D01*
X163392143Y-69057200D02*
X163296905Y-69104819D01*
X163296905Y-69104819D02*
X163106429Y-69104819D01*
X163106429Y-69104819D02*
X163011191Y-69057200D01*
X163011191Y-69057200D02*
X162963572Y-69009580D01*
X162963572Y-69009580D02*
X162915953Y-68914342D01*
X162915953Y-68914342D02*
X162915953Y-68628628D01*
X162915953Y-68628628D02*
X162963572Y-68533390D01*
X162963572Y-68533390D02*
X163011191Y-68485771D01*
X163011191Y-68485771D02*
X163106429Y-68438152D01*
X163106429Y-68438152D02*
X163296905Y-68438152D01*
X163296905Y-68438152D02*
X163392143Y-68485771D01*
X164249286Y-69057200D02*
X164154048Y-69104819D01*
X164154048Y-69104819D02*
X163963572Y-69104819D01*
X163963572Y-69104819D02*
X163868334Y-69057200D01*
X163868334Y-69057200D02*
X163820715Y-68961961D01*
X163820715Y-68961961D02*
X163820715Y-68581009D01*
X163820715Y-68581009D02*
X163868334Y-68485771D01*
X163868334Y-68485771D02*
X163963572Y-68438152D01*
X163963572Y-68438152D02*
X164154048Y-68438152D01*
X164154048Y-68438152D02*
X164249286Y-68485771D01*
X164249286Y-68485771D02*
X164296905Y-68581009D01*
X164296905Y-68581009D02*
X164296905Y-68676247D01*
X164296905Y-68676247D02*
X163820715Y-68771485D01*
X164725477Y-69104819D02*
X164725477Y-68438152D01*
X164725477Y-68628628D02*
X164773096Y-68533390D01*
X164773096Y-68533390D02*
X164820715Y-68485771D01*
X164820715Y-68485771D02*
X164915953Y-68438152D01*
X164915953Y-68438152D02*
X165011191Y-68438152D01*
X165106430Y-69200057D02*
X165868334Y-69200057D01*
X166058811Y-69057200D02*
X166201668Y-69104819D01*
X166201668Y-69104819D02*
X166439763Y-69104819D01*
X166439763Y-69104819D02*
X166535001Y-69057200D01*
X166535001Y-69057200D02*
X166582620Y-69009580D01*
X166582620Y-69009580D02*
X166630239Y-68914342D01*
X166630239Y-68914342D02*
X166630239Y-68819104D01*
X166630239Y-68819104D02*
X166582620Y-68723866D01*
X166582620Y-68723866D02*
X166535001Y-68676247D01*
X166535001Y-68676247D02*
X166439763Y-68628628D01*
X166439763Y-68628628D02*
X166249287Y-68581009D01*
X166249287Y-68581009D02*
X166154049Y-68533390D01*
X166154049Y-68533390D02*
X166106430Y-68485771D01*
X166106430Y-68485771D02*
X166058811Y-68390533D01*
X166058811Y-68390533D02*
X166058811Y-68295295D01*
X166058811Y-68295295D02*
X166106430Y-68200057D01*
X166106430Y-68200057D02*
X166154049Y-68152438D01*
X166154049Y-68152438D02*
X166249287Y-68104819D01*
X166249287Y-68104819D02*
X166487382Y-68104819D01*
X166487382Y-68104819D02*
X166630239Y-68152438D01*
X166963573Y-68438152D02*
X167154049Y-69104819D01*
X167154049Y-69104819D02*
X167344525Y-68628628D01*
X167344525Y-68628628D02*
X167535001Y-69104819D01*
X167535001Y-69104819D02*
X167725477Y-68438152D01*
X168106430Y-69104819D02*
X168106430Y-68438152D01*
X168106430Y-68104819D02*
X168058811Y-68152438D01*
X168058811Y-68152438D02*
X168106430Y-68200057D01*
X168106430Y-68200057D02*
X168154049Y-68152438D01*
X168154049Y-68152438D02*
X168106430Y-68104819D01*
X168106430Y-68104819D02*
X168106430Y-68200057D01*
X168439763Y-68438152D02*
X168820715Y-68438152D01*
X168582620Y-68104819D02*
X168582620Y-68961961D01*
X168582620Y-68961961D02*
X168630239Y-69057200D01*
X168630239Y-69057200D02*
X168725477Y-69104819D01*
X168725477Y-69104819D02*
X168820715Y-69104819D01*
X169582620Y-69057200D02*
X169487382Y-69104819D01*
X169487382Y-69104819D02*
X169296906Y-69104819D01*
X169296906Y-69104819D02*
X169201668Y-69057200D01*
X169201668Y-69057200D02*
X169154049Y-69009580D01*
X169154049Y-69009580D02*
X169106430Y-68914342D01*
X169106430Y-68914342D02*
X169106430Y-68628628D01*
X169106430Y-68628628D02*
X169154049Y-68533390D01*
X169154049Y-68533390D02*
X169201668Y-68485771D01*
X169201668Y-68485771D02*
X169296906Y-68438152D01*
X169296906Y-68438152D02*
X169487382Y-68438152D01*
X169487382Y-68438152D02*
X169582620Y-68485771D01*
X170011192Y-69104819D02*
X170011192Y-68104819D01*
X170439763Y-69104819D02*
X170439763Y-68581009D01*
X170439763Y-68581009D02*
X170392144Y-68485771D01*
X170392144Y-68485771D02*
X170296906Y-68438152D01*
X170296906Y-68438152D02*
X170154049Y-68438152D01*
X170154049Y-68438152D02*
X170058811Y-68485771D01*
X170058811Y-68485771D02*
X170011192Y-68533390D01*
X164426667Y-67707200D02*
X164569524Y-67754819D01*
X164569524Y-67754819D02*
X164807619Y-67754819D01*
X164807619Y-67754819D02*
X164902857Y-67707200D01*
X164902857Y-67707200D02*
X164950476Y-67659580D01*
X164950476Y-67659580D02*
X164998095Y-67564342D01*
X164998095Y-67564342D02*
X164998095Y-67469104D01*
X164998095Y-67469104D02*
X164950476Y-67373866D01*
X164950476Y-67373866D02*
X164902857Y-67326247D01*
X164902857Y-67326247D02*
X164807619Y-67278628D01*
X164807619Y-67278628D02*
X164617143Y-67231009D01*
X164617143Y-67231009D02*
X164521905Y-67183390D01*
X164521905Y-67183390D02*
X164474286Y-67135771D01*
X164474286Y-67135771D02*
X164426667Y-67040533D01*
X164426667Y-67040533D02*
X164426667Y-66945295D01*
X164426667Y-66945295D02*
X164474286Y-66850057D01*
X164474286Y-66850057D02*
X164521905Y-66802438D01*
X164521905Y-66802438D02*
X164617143Y-66754819D01*
X164617143Y-66754819D02*
X164855238Y-66754819D01*
X164855238Y-66754819D02*
X164998095Y-66802438D01*
X165331429Y-66754819D02*
X165569524Y-67754819D01*
X165569524Y-67754819D02*
X165760000Y-67040533D01*
X165760000Y-67040533D02*
X165950476Y-67754819D01*
X165950476Y-67754819D02*
X166188572Y-66754819D01*
X167093333Y-67754819D02*
X166521905Y-67754819D01*
X166807619Y-67754819D02*
X166807619Y-66754819D01*
X166807619Y-66754819D02*
X166712381Y-66897676D01*
X166712381Y-66897676D02*
X166617143Y-66992914D01*
X166617143Y-66992914D02*
X166521905Y-67040533D01*
X145565476Y-36084820D02*
X145755952Y-36084820D01*
X145755952Y-36084820D02*
X145851190Y-36132439D01*
X145851190Y-36132439D02*
X145946428Y-36227677D01*
X145946428Y-36227677D02*
X145994047Y-36418153D01*
X145994047Y-36418153D02*
X145994047Y-36751486D01*
X145994047Y-36751486D02*
X145946428Y-36941962D01*
X145946428Y-36941962D02*
X145851190Y-37037201D01*
X145851190Y-37037201D02*
X145755952Y-37084820D01*
X145755952Y-37084820D02*
X145565476Y-37084820D01*
X145565476Y-37084820D02*
X145470238Y-37037201D01*
X145470238Y-37037201D02*
X145375000Y-36941962D01*
X145375000Y-36941962D02*
X145327381Y-36751486D01*
X145327381Y-36751486D02*
X145327381Y-36418153D01*
X145327381Y-36418153D02*
X145375000Y-36227677D01*
X145375000Y-36227677D02*
X145470238Y-36132439D01*
X145470238Y-36132439D02*
X145565476Y-36084820D01*
X146898809Y-37084820D02*
X146422619Y-37084820D01*
X146422619Y-37084820D02*
X146422619Y-36084820D01*
X147232143Y-36561010D02*
X147565476Y-36561010D01*
X147708333Y-37084820D02*
X147232143Y-37084820D01*
X147232143Y-37084820D02*
X147232143Y-36084820D01*
X147232143Y-36084820D02*
X147708333Y-36084820D01*
X148136905Y-37084820D02*
X148136905Y-36084820D01*
X148136905Y-36084820D02*
X148375000Y-36084820D01*
X148375000Y-36084820D02*
X148517857Y-36132439D01*
X148517857Y-36132439D02*
X148613095Y-36227677D01*
X148613095Y-36227677D02*
X148660714Y-36322915D01*
X148660714Y-36322915D02*
X148708333Y-36513391D01*
X148708333Y-36513391D02*
X148708333Y-36656248D01*
X148708333Y-36656248D02*
X148660714Y-36846724D01*
X148660714Y-36846724D02*
X148613095Y-36941962D01*
X148613095Y-36941962D02*
X148517857Y-37037201D01*
X148517857Y-37037201D02*
X148375000Y-37084820D01*
X148375000Y-37084820D02*
X148136905Y-37084820D01*
X148898810Y-37180058D02*
X149660714Y-37180058D01*
X149898810Y-37084820D02*
X149898810Y-36084820D01*
X149898810Y-36084820D02*
X150136905Y-36084820D01*
X150136905Y-36084820D02*
X150279762Y-36132439D01*
X150279762Y-36132439D02*
X150375000Y-36227677D01*
X150375000Y-36227677D02*
X150422619Y-36322915D01*
X150422619Y-36322915D02*
X150470238Y-36513391D01*
X150470238Y-36513391D02*
X150470238Y-36656248D01*
X150470238Y-36656248D02*
X150422619Y-36846724D01*
X150422619Y-36846724D02*
X150375000Y-36941962D01*
X150375000Y-36941962D02*
X150279762Y-37037201D01*
X150279762Y-37037201D02*
X150136905Y-37084820D01*
X150136905Y-37084820D02*
X149898810Y-37084820D01*
X150898810Y-37084820D02*
X150898810Y-36084820D01*
X151327381Y-37037201D02*
X151470238Y-37084820D01*
X151470238Y-37084820D02*
X151708333Y-37084820D01*
X151708333Y-37084820D02*
X151803571Y-37037201D01*
X151803571Y-37037201D02*
X151851190Y-36989581D01*
X151851190Y-36989581D02*
X151898809Y-36894343D01*
X151898809Y-36894343D02*
X151898809Y-36799105D01*
X151898809Y-36799105D02*
X151851190Y-36703867D01*
X151851190Y-36703867D02*
X151803571Y-36656248D01*
X151803571Y-36656248D02*
X151708333Y-36608629D01*
X151708333Y-36608629D02*
X151517857Y-36561010D01*
X151517857Y-36561010D02*
X151422619Y-36513391D01*
X151422619Y-36513391D02*
X151375000Y-36465772D01*
X151375000Y-36465772D02*
X151327381Y-36370534D01*
X151327381Y-36370534D02*
X151327381Y-36275296D01*
X151327381Y-36275296D02*
X151375000Y-36180058D01*
X151375000Y-36180058D02*
X151422619Y-36132439D01*
X151422619Y-36132439D02*
X151517857Y-36084820D01*
X151517857Y-36084820D02*
X151755952Y-36084820D01*
X151755952Y-36084820D02*
X151898809Y-36132439D01*
X152327381Y-37084820D02*
X152327381Y-36084820D01*
X152327381Y-36084820D02*
X152708333Y-36084820D01*
X152708333Y-36084820D02*
X152803571Y-36132439D01*
X152803571Y-36132439D02*
X152851190Y-36180058D01*
X152851190Y-36180058D02*
X152898809Y-36275296D01*
X152898809Y-36275296D02*
X152898809Y-36418153D01*
X152898809Y-36418153D02*
X152851190Y-36513391D01*
X152851190Y-36513391D02*
X152803571Y-36561010D01*
X152803571Y-36561010D02*
X152708333Y-36608629D01*
X152708333Y-36608629D02*
X152327381Y-36608629D01*
X153803571Y-37084820D02*
X153327381Y-37084820D01*
X153327381Y-37084820D02*
X153327381Y-36084820D01*
X154089286Y-36799105D02*
X154565476Y-36799105D01*
X153994048Y-37084820D02*
X154327381Y-36084820D01*
X154327381Y-36084820D02*
X154660714Y-37084820D01*
X155184524Y-36608629D02*
X155184524Y-37084820D01*
X154851191Y-36084820D02*
X155184524Y-36608629D01*
X155184524Y-36608629D02*
X155517857Y-36084820D01*
X120420238Y-90878819D02*
X120420238Y-89878819D01*
X120991666Y-90878819D02*
X120563095Y-90307390D01*
X120991666Y-89878819D02*
X120420238Y-90450247D01*
X121801190Y-90831200D02*
X121705952Y-90878819D01*
X121705952Y-90878819D02*
X121515476Y-90878819D01*
X121515476Y-90878819D02*
X121420238Y-90831200D01*
X121420238Y-90831200D02*
X121372619Y-90735961D01*
X121372619Y-90735961D02*
X121372619Y-90355009D01*
X121372619Y-90355009D02*
X121420238Y-90259771D01*
X121420238Y-90259771D02*
X121515476Y-90212152D01*
X121515476Y-90212152D02*
X121705952Y-90212152D01*
X121705952Y-90212152D02*
X121801190Y-90259771D01*
X121801190Y-90259771D02*
X121848809Y-90355009D01*
X121848809Y-90355009D02*
X121848809Y-90450247D01*
X121848809Y-90450247D02*
X121372619Y-90545485D01*
X122182143Y-90212152D02*
X122420238Y-90878819D01*
X122658333Y-90212152D02*
X122420238Y-90878819D01*
X122420238Y-90878819D02*
X122325000Y-91116914D01*
X122325000Y-91116914D02*
X122277381Y-91164533D01*
X122277381Y-91164533D02*
X122182143Y-91212152D01*
X122991667Y-90831200D02*
X123086905Y-90878819D01*
X123086905Y-90878819D02*
X123277381Y-90878819D01*
X123277381Y-90878819D02*
X123372619Y-90831200D01*
X123372619Y-90831200D02*
X123420238Y-90735961D01*
X123420238Y-90735961D02*
X123420238Y-90688342D01*
X123420238Y-90688342D02*
X123372619Y-90593104D01*
X123372619Y-90593104D02*
X123277381Y-90545485D01*
X123277381Y-90545485D02*
X123134524Y-90545485D01*
X123134524Y-90545485D02*
X123039286Y-90497866D01*
X123039286Y-90497866D02*
X122991667Y-90402628D01*
X122991667Y-90402628D02*
X122991667Y-90355009D01*
X122991667Y-90355009D02*
X123039286Y-90259771D01*
X123039286Y-90259771D02*
X123134524Y-90212152D01*
X123134524Y-90212152D02*
X123277381Y-90212152D01*
X123277381Y-90212152D02*
X123372619Y-90259771D01*
X123753572Y-90212152D02*
X123944048Y-90878819D01*
X123944048Y-90878819D02*
X124134524Y-90402628D01*
X124134524Y-90402628D02*
X124325000Y-90878819D01*
X124325000Y-90878819D02*
X124515476Y-90212152D01*
X124896429Y-90878819D02*
X124896429Y-90212152D01*
X124896429Y-89878819D02*
X124848810Y-89926438D01*
X124848810Y-89926438D02*
X124896429Y-89974057D01*
X124896429Y-89974057D02*
X124944048Y-89926438D01*
X124944048Y-89926438D02*
X124896429Y-89878819D01*
X124896429Y-89878819D02*
X124896429Y-89974057D01*
X125229762Y-90212152D02*
X125610714Y-90212152D01*
X125372619Y-89878819D02*
X125372619Y-90735961D01*
X125372619Y-90735961D02*
X125420238Y-90831200D01*
X125420238Y-90831200D02*
X125515476Y-90878819D01*
X125515476Y-90878819D02*
X125610714Y-90878819D01*
X126372619Y-90831200D02*
X126277381Y-90878819D01*
X126277381Y-90878819D02*
X126086905Y-90878819D01*
X126086905Y-90878819D02*
X125991667Y-90831200D01*
X125991667Y-90831200D02*
X125944048Y-90783580D01*
X125944048Y-90783580D02*
X125896429Y-90688342D01*
X125896429Y-90688342D02*
X125896429Y-90402628D01*
X125896429Y-90402628D02*
X125944048Y-90307390D01*
X125944048Y-90307390D02*
X125991667Y-90259771D01*
X125991667Y-90259771D02*
X126086905Y-90212152D01*
X126086905Y-90212152D02*
X126277381Y-90212152D01*
X126277381Y-90212152D02*
X126372619Y-90259771D01*
X126801191Y-90878819D02*
X126801191Y-89878819D01*
X127229762Y-90878819D02*
X127229762Y-90355009D01*
X127229762Y-90355009D02*
X127182143Y-90259771D01*
X127182143Y-90259771D02*
X127086905Y-90212152D01*
X127086905Y-90212152D02*
X126944048Y-90212152D01*
X126944048Y-90212152D02*
X126848810Y-90259771D01*
X126848810Y-90259771D02*
X126801191Y-90307390D01*
D12*
X114476109Y-73389047D02*
X113976109Y-73389047D01*
X113976109Y-73389047D02*
X113976109Y-73269999D01*
X113976109Y-73269999D02*
X113999919Y-73198571D01*
X113999919Y-73198571D02*
X114047538Y-73150952D01*
X114047538Y-73150952D02*
X114095157Y-73127142D01*
X114095157Y-73127142D02*
X114190395Y-73103333D01*
X114190395Y-73103333D02*
X114261823Y-73103333D01*
X114261823Y-73103333D02*
X114357061Y-73127142D01*
X114357061Y-73127142D02*
X114404680Y-73150952D01*
X114404680Y-73150952D02*
X114452300Y-73198571D01*
X114452300Y-73198571D02*
X114476109Y-73269999D01*
X114476109Y-73269999D02*
X114476109Y-73389047D01*
X114190395Y-72817618D02*
X114166585Y-72865237D01*
X114166585Y-72865237D02*
X114142776Y-72889047D01*
X114142776Y-72889047D02*
X114095157Y-72912856D01*
X114095157Y-72912856D02*
X114071347Y-72912856D01*
X114071347Y-72912856D02*
X114023728Y-72889047D01*
X114023728Y-72889047D02*
X113999919Y-72865237D01*
X113999919Y-72865237D02*
X113976109Y-72817618D01*
X113976109Y-72817618D02*
X113976109Y-72722380D01*
X113976109Y-72722380D02*
X113999919Y-72674761D01*
X113999919Y-72674761D02*
X114023728Y-72650952D01*
X114023728Y-72650952D02*
X114071347Y-72627142D01*
X114071347Y-72627142D02*
X114095157Y-72627142D01*
X114095157Y-72627142D02*
X114142776Y-72650952D01*
X114142776Y-72650952D02*
X114166585Y-72674761D01*
X114166585Y-72674761D02*
X114190395Y-72722380D01*
X114190395Y-72722380D02*
X114190395Y-72817618D01*
X114190395Y-72817618D02*
X114214204Y-72865237D01*
X114214204Y-72865237D02*
X114238014Y-72889047D01*
X114238014Y-72889047D02*
X114285633Y-72912856D01*
X114285633Y-72912856D02*
X114380871Y-72912856D01*
X114380871Y-72912856D02*
X114428490Y-72889047D01*
X114428490Y-72889047D02*
X114452300Y-72865237D01*
X114452300Y-72865237D02*
X114476109Y-72817618D01*
X114476109Y-72817618D02*
X114476109Y-72722380D01*
X114476109Y-72722380D02*
X114452300Y-72674761D01*
X114452300Y-72674761D02*
X114428490Y-72650952D01*
X114428490Y-72650952D02*
X114380871Y-72627142D01*
X114380871Y-72627142D02*
X114285633Y-72627142D01*
X114285633Y-72627142D02*
X114238014Y-72650952D01*
X114238014Y-72650952D02*
X114214204Y-72674761D01*
X114214204Y-72674761D02*
X114190395Y-72722380D01*
D10*
X107314819Y-69839716D02*
X106314819Y-69839716D01*
X106314819Y-69839716D02*
X106314819Y-69601621D01*
X106314819Y-69601621D02*
X106362438Y-69458764D01*
X106362438Y-69458764D02*
X106457676Y-69363526D01*
X106457676Y-69363526D02*
X106552914Y-69315907D01*
X106552914Y-69315907D02*
X106743390Y-69268288D01*
X106743390Y-69268288D02*
X106886247Y-69268288D01*
X106886247Y-69268288D02*
X107076723Y-69315907D01*
X107076723Y-69315907D02*
X107171961Y-69363526D01*
X107171961Y-69363526D02*
X107267200Y-69458764D01*
X107267200Y-69458764D02*
X107314819Y-69601621D01*
X107314819Y-69601621D02*
X107314819Y-69839716D01*
X107314819Y-68839716D02*
X106648152Y-68839716D01*
X106314819Y-68839716D02*
X106362438Y-68887335D01*
X106362438Y-68887335D02*
X106410057Y-68839716D01*
X106410057Y-68839716D02*
X106362438Y-68792097D01*
X106362438Y-68792097D02*
X106314819Y-68839716D01*
X106314819Y-68839716D02*
X106410057Y-68839716D01*
X107314819Y-68220669D02*
X107267200Y-68315907D01*
X107267200Y-68315907D02*
X107219580Y-68363526D01*
X107219580Y-68363526D02*
X107124342Y-68411145D01*
X107124342Y-68411145D02*
X106838628Y-68411145D01*
X106838628Y-68411145D02*
X106743390Y-68363526D01*
X106743390Y-68363526D02*
X106695771Y-68315907D01*
X106695771Y-68315907D02*
X106648152Y-68220669D01*
X106648152Y-68220669D02*
X106648152Y-68077812D01*
X106648152Y-68077812D02*
X106695771Y-67982574D01*
X106695771Y-67982574D02*
X106743390Y-67934955D01*
X106743390Y-67934955D02*
X106838628Y-67887336D01*
X106838628Y-67887336D02*
X107124342Y-67887336D01*
X107124342Y-67887336D02*
X107219580Y-67934955D01*
X107219580Y-67934955D02*
X107267200Y-67982574D01*
X107267200Y-67982574D02*
X107314819Y-68077812D01*
X107314819Y-68077812D02*
X107314819Y-68220669D01*
X107314819Y-67030193D02*
X106314819Y-67030193D01*
X107267200Y-67030193D02*
X107314819Y-67125431D01*
X107314819Y-67125431D02*
X107314819Y-67315907D01*
X107314819Y-67315907D02*
X107267200Y-67411145D01*
X107267200Y-67411145D02*
X107219580Y-67458764D01*
X107219580Y-67458764D02*
X107124342Y-67506383D01*
X107124342Y-67506383D02*
X106838628Y-67506383D01*
X106838628Y-67506383D02*
X106743390Y-67458764D01*
X106743390Y-67458764D02*
X106695771Y-67411145D01*
X106695771Y-67411145D02*
X106648152Y-67315907D01*
X106648152Y-67315907D02*
X106648152Y-67125431D01*
X106648152Y-67125431D02*
X106695771Y-67030193D01*
X107267200Y-66173050D02*
X107314819Y-66268288D01*
X107314819Y-66268288D02*
X107314819Y-66458764D01*
X107314819Y-66458764D02*
X107267200Y-66554002D01*
X107267200Y-66554002D02*
X107171961Y-66601621D01*
X107171961Y-66601621D02*
X106791009Y-66601621D01*
X106791009Y-66601621D02*
X106695771Y-66554002D01*
X106695771Y-66554002D02*
X106648152Y-66458764D01*
X106648152Y-66458764D02*
X106648152Y-66268288D01*
X106648152Y-66268288D02*
X106695771Y-66173050D01*
X106695771Y-66173050D02*
X106791009Y-66125431D01*
X106791009Y-66125431D02*
X106886247Y-66125431D01*
X106886247Y-66125431D02*
X106981485Y-66601621D01*
D11*
X109343855Y-68896859D02*
X108543855Y-68896859D01*
X108543855Y-68896859D02*
X108543855Y-68706383D01*
X108543855Y-68706383D02*
X108581950Y-68592097D01*
X108581950Y-68592097D02*
X108658140Y-68515907D01*
X108658140Y-68515907D02*
X108734331Y-68477812D01*
X108734331Y-68477812D02*
X108886712Y-68439716D01*
X108886712Y-68439716D02*
X109000998Y-68439716D01*
X109000998Y-68439716D02*
X109153379Y-68477812D01*
X109153379Y-68477812D02*
X109229569Y-68515907D01*
X109229569Y-68515907D02*
X109305760Y-68592097D01*
X109305760Y-68592097D02*
X109343855Y-68706383D01*
X109343855Y-68706383D02*
X109343855Y-68896859D01*
X109343855Y-67677812D02*
X109343855Y-68134955D01*
X109343855Y-67906383D02*
X108543855Y-67906383D01*
X108543855Y-67906383D02*
X108658140Y-67982574D01*
X108658140Y-67982574D02*
X108734331Y-68058764D01*
X108734331Y-68058764D02*
X108772426Y-68134955D01*
D10*
X103814819Y-69839716D02*
X102814819Y-69839716D01*
X102814819Y-69839716D02*
X102814819Y-69601621D01*
X102814819Y-69601621D02*
X102862438Y-69458764D01*
X102862438Y-69458764D02*
X102957676Y-69363526D01*
X102957676Y-69363526D02*
X103052914Y-69315907D01*
X103052914Y-69315907D02*
X103243390Y-69268288D01*
X103243390Y-69268288D02*
X103386247Y-69268288D01*
X103386247Y-69268288D02*
X103576723Y-69315907D01*
X103576723Y-69315907D02*
X103671961Y-69363526D01*
X103671961Y-69363526D02*
X103767200Y-69458764D01*
X103767200Y-69458764D02*
X103814819Y-69601621D01*
X103814819Y-69601621D02*
X103814819Y-69839716D01*
X103814819Y-68839716D02*
X103148152Y-68839716D01*
X102814819Y-68839716D02*
X102862438Y-68887335D01*
X102862438Y-68887335D02*
X102910057Y-68839716D01*
X102910057Y-68839716D02*
X102862438Y-68792097D01*
X102862438Y-68792097D02*
X102814819Y-68839716D01*
X102814819Y-68839716D02*
X102910057Y-68839716D01*
X103814819Y-68220669D02*
X103767200Y-68315907D01*
X103767200Y-68315907D02*
X103719580Y-68363526D01*
X103719580Y-68363526D02*
X103624342Y-68411145D01*
X103624342Y-68411145D02*
X103338628Y-68411145D01*
X103338628Y-68411145D02*
X103243390Y-68363526D01*
X103243390Y-68363526D02*
X103195771Y-68315907D01*
X103195771Y-68315907D02*
X103148152Y-68220669D01*
X103148152Y-68220669D02*
X103148152Y-68077812D01*
X103148152Y-68077812D02*
X103195771Y-67982574D01*
X103195771Y-67982574D02*
X103243390Y-67934955D01*
X103243390Y-67934955D02*
X103338628Y-67887336D01*
X103338628Y-67887336D02*
X103624342Y-67887336D01*
X103624342Y-67887336D02*
X103719580Y-67934955D01*
X103719580Y-67934955D02*
X103767200Y-67982574D01*
X103767200Y-67982574D02*
X103814819Y-68077812D01*
X103814819Y-68077812D02*
X103814819Y-68220669D01*
X103814819Y-67030193D02*
X102814819Y-67030193D01*
X103767200Y-67030193D02*
X103814819Y-67125431D01*
X103814819Y-67125431D02*
X103814819Y-67315907D01*
X103814819Y-67315907D02*
X103767200Y-67411145D01*
X103767200Y-67411145D02*
X103719580Y-67458764D01*
X103719580Y-67458764D02*
X103624342Y-67506383D01*
X103624342Y-67506383D02*
X103338628Y-67506383D01*
X103338628Y-67506383D02*
X103243390Y-67458764D01*
X103243390Y-67458764D02*
X103195771Y-67411145D01*
X103195771Y-67411145D02*
X103148152Y-67315907D01*
X103148152Y-67315907D02*
X103148152Y-67125431D01*
X103148152Y-67125431D02*
X103195771Y-67030193D01*
X103767200Y-66173050D02*
X103814819Y-66268288D01*
X103814819Y-66268288D02*
X103814819Y-66458764D01*
X103814819Y-66458764D02*
X103767200Y-66554002D01*
X103767200Y-66554002D02*
X103671961Y-66601621D01*
X103671961Y-66601621D02*
X103291009Y-66601621D01*
X103291009Y-66601621D02*
X103195771Y-66554002D01*
X103195771Y-66554002D02*
X103148152Y-66458764D01*
X103148152Y-66458764D02*
X103148152Y-66268288D01*
X103148152Y-66268288D02*
X103195771Y-66173050D01*
X103195771Y-66173050D02*
X103291009Y-66125431D01*
X103291009Y-66125431D02*
X103386247Y-66125431D01*
X103386247Y-66125431D02*
X103481485Y-66601621D01*
D11*
X105843855Y-68896859D02*
X105043855Y-68896859D01*
X105043855Y-68896859D02*
X105043855Y-68706383D01*
X105043855Y-68706383D02*
X105081950Y-68592097D01*
X105081950Y-68592097D02*
X105158140Y-68515907D01*
X105158140Y-68515907D02*
X105234331Y-68477812D01*
X105234331Y-68477812D02*
X105386712Y-68439716D01*
X105386712Y-68439716D02*
X105500998Y-68439716D01*
X105500998Y-68439716D02*
X105653379Y-68477812D01*
X105653379Y-68477812D02*
X105729569Y-68515907D01*
X105729569Y-68515907D02*
X105805760Y-68592097D01*
X105805760Y-68592097D02*
X105843855Y-68706383D01*
X105843855Y-68706383D02*
X105843855Y-68896859D01*
X105120045Y-68134955D02*
X105081950Y-68096859D01*
X105081950Y-68096859D02*
X105043855Y-68020669D01*
X105043855Y-68020669D02*
X105043855Y-67830193D01*
X105043855Y-67830193D02*
X105081950Y-67754002D01*
X105081950Y-67754002D02*
X105120045Y-67715907D01*
X105120045Y-67715907D02*
X105196236Y-67677812D01*
X105196236Y-67677812D02*
X105272426Y-67677812D01*
X105272426Y-67677812D02*
X105386712Y-67715907D01*
X105386712Y-67715907D02*
X105843855Y-68173050D01*
X105843855Y-68173050D02*
X105843855Y-67677812D01*
%TO.C,D3*%
D12*
X94980000Y-64196384D02*
X94980000Y-66006384D01*
X94980000Y-71816384D02*
X94980000Y-70006383D01*
X95980000Y-66506384D02*
X93980000Y-66506384D01*
X95980000Y-66606384D02*
X93980000Y-66606384D01*
X95980000Y-66706384D02*
X93980000Y-66706384D01*
X95980000Y-66006384D02*
X95980000Y-70006384D01*
X93980000Y-70006384D01*
X93980000Y-66006384D01*
X95980000Y-66006384D01*
%TO.C,S3*%
X155575000Y-76200000D02*
X168275000Y-76200000D01*
X155575000Y-88900000D02*
X155575000Y-76200000D01*
X168275000Y-76200000D02*
X168275000Y-88900000D01*
X168275000Y-88900000D02*
X155575000Y-88900000D01*
%TO.C,D6*%
X91477500Y-64196385D02*
X91477500Y-66006385D01*
X91477500Y-71816385D02*
X91477500Y-70006384D01*
X92477500Y-66506385D02*
X90477500Y-66506385D01*
X92477500Y-66606385D02*
X90477500Y-66606385D01*
X92477500Y-66706385D02*
X90477500Y-66706385D01*
X92477500Y-66006385D02*
X92477500Y-70006385D01*
X90477500Y-70006385D01*
X90477500Y-66006385D01*
X92477500Y-66006385D01*
%TO.C,U1*%
D13*
X91475000Y-40846594D02*
X91475000Y-57782551D01*
X91485000Y-57782551D02*
X91485508Y-57831574D01*
X91485508Y-57831574D02*
X91487285Y-57880850D01*
X91487285Y-40748295D02*
X91485508Y-40797571D01*
X91487285Y-57880850D02*
X91490333Y-57929618D01*
X91490333Y-40699527D02*
X91487285Y-40748295D01*
X91490333Y-57929618D02*
X91494397Y-57978639D01*
X91494397Y-40650506D02*
X91490333Y-40699527D01*
X91494397Y-57978639D02*
X91499732Y-58027407D01*
X91499732Y-40601738D02*
X91494397Y-40650506D01*
X91499732Y-58027407D02*
X91506336Y-58076175D01*
X91506336Y-40552970D02*
X91499732Y-40601738D01*
X91506336Y-58076175D02*
X91513956Y-58124690D01*
X91513956Y-40504455D02*
X91506336Y-40552970D01*
X91513956Y-58124690D02*
X91522845Y-58172950D01*
X91522845Y-40456195D02*
X91513956Y-40504455D01*
X91522845Y-58172950D02*
X91532752Y-58220955D01*
X91532752Y-40408190D02*
X91522845Y-40456195D01*
X91532752Y-58220955D02*
X91543928Y-58268962D01*
X91543928Y-40360183D02*
X91532752Y-40408190D01*
X91543928Y-58268962D02*
X91556373Y-58316459D01*
X91556373Y-40312686D02*
X91543928Y-40360183D01*
X91556373Y-58316459D02*
X91569836Y-58363703D01*
X91569836Y-40265442D02*
X91556373Y-40312686D01*
X91569836Y-58363703D02*
X91584568Y-58410439D01*
X91584568Y-40218706D02*
X91569836Y-40265442D01*
X91584568Y-58410439D02*
X91600316Y-58456922D01*
X91600316Y-40172223D02*
X91584568Y-40218706D01*
X91600316Y-58456922D02*
X91617080Y-58503150D01*
X91617080Y-40125995D02*
X91600316Y-40172223D01*
X91617080Y-58503150D02*
X91635113Y-58548870D01*
X91635113Y-40080275D02*
X91617080Y-40125995D01*
X91635113Y-58548870D02*
X91654164Y-58594082D01*
X91654164Y-40035063D02*
X91635113Y-40080275D01*
X91654164Y-58594082D02*
X91674229Y-58638786D01*
X91674229Y-39990359D02*
X91654164Y-40035063D01*
X91674229Y-58638786D02*
X91695565Y-58683235D01*
X91695565Y-39945910D02*
X91674229Y-39990359D01*
X91695565Y-58683235D02*
X91717664Y-58726923D01*
X91717664Y-39902222D02*
X91695565Y-39945910D01*
X91717664Y-58726923D02*
X91741032Y-58770103D01*
X91741032Y-39859042D02*
X91717664Y-39902222D01*
X91741032Y-58770103D02*
X91765416Y-58812775D01*
X91765416Y-39816370D02*
X91741032Y-39859042D01*
X91765416Y-58812775D02*
X91790816Y-58854686D01*
X91790816Y-39774459D02*
X91765416Y-39816370D01*
X91790816Y-58854686D02*
X91817232Y-58896087D01*
X91817232Y-39733058D02*
X91790816Y-39774459D01*
X91817232Y-58896087D02*
X91844664Y-58936982D01*
X91844664Y-39692163D02*
X91817232Y-39733058D01*
X91844664Y-58936982D02*
X91873112Y-58976859D01*
X91873112Y-39652286D02*
X91844664Y-39692163D01*
X91873112Y-58976859D02*
X91902321Y-59016230D01*
X91902321Y-39612915D02*
X91873112Y-39652286D01*
X91902321Y-59016230D02*
X91932801Y-59054838D01*
X91932801Y-39574307D02*
X91902321Y-39612915D01*
X91932801Y-59054838D02*
X91963789Y-59092938D01*
X91963789Y-39536207D02*
X91932801Y-39574307D01*
X91963789Y-59092938D02*
X91996048Y-59130022D01*
X91996048Y-39499123D02*
X91963789Y-39536207D01*
X91996048Y-59130022D02*
X92029068Y-59166343D01*
X92029068Y-39462802D02*
X91996048Y-39499123D01*
X92029068Y-59166343D02*
X92062849Y-59201903D01*
X92062849Y-39427242D02*
X92029068Y-39462802D01*
X92062849Y-59201903D02*
X92097648Y-59236702D01*
X92097648Y-39392443D02*
X92062849Y-39427242D01*
X92097648Y-59236702D02*
X92133208Y-59270483D01*
X92133208Y-39358662D02*
X92097648Y-39392443D01*
X92133208Y-59270483D02*
X92169529Y-59303503D01*
X92169529Y-39325642D02*
X92133208Y-39358662D01*
X92169529Y-59303503D02*
X92206613Y-59335762D01*
X92206613Y-39293383D02*
X92169529Y-39325642D01*
X92206613Y-59335762D02*
X92244713Y-59366750D01*
X92244713Y-39262395D02*
X92206613Y-39293383D01*
X92244713Y-59366750D02*
X92283321Y-59397230D01*
X92283321Y-39231915D02*
X92244713Y-39262395D01*
X92283321Y-59397230D02*
X92322692Y-59426439D01*
X92322692Y-39202706D02*
X92283321Y-39231915D01*
X92322692Y-59426439D02*
X92362569Y-59454887D01*
X92362569Y-39174258D02*
X92322692Y-39202706D01*
X92362569Y-59454887D02*
X92403464Y-59482319D01*
X92403464Y-39146826D02*
X92362569Y-39174258D01*
X92403464Y-59482319D02*
X92444865Y-59508735D01*
X92444865Y-39120410D02*
X92403464Y-39146826D01*
X92444865Y-59508735D02*
X92486776Y-59534135D01*
X92486776Y-39095010D02*
X92444865Y-39120410D01*
X92486776Y-59534135D02*
X92529448Y-59558519D01*
X92529448Y-39070626D02*
X92486776Y-39095010D01*
X92529448Y-59558519D02*
X92572628Y-59581887D01*
X92572628Y-39047258D02*
X92529448Y-39070626D01*
X92572628Y-59581887D02*
X92616316Y-59603986D01*
X92616316Y-39025159D02*
X92572628Y-39047258D01*
X92616316Y-59603986D02*
X92660765Y-59625322D01*
X92660765Y-39003823D02*
X92616316Y-39025159D01*
X92660765Y-59625322D02*
X92705469Y-59645387D01*
X92705469Y-38983758D02*
X92660765Y-39003823D01*
X92705469Y-59645387D02*
X92750681Y-59664438D01*
X92750681Y-38964707D02*
X92705469Y-38983758D01*
X92750681Y-59664438D02*
X92796401Y-59682471D01*
X92796401Y-38946674D02*
X92750681Y-38964707D01*
X92796401Y-59682471D02*
X92842629Y-59699235D01*
X92842629Y-38929910D02*
X92796401Y-38946674D01*
X92842629Y-59699235D02*
X92889112Y-59714983D01*
X92889112Y-38914162D02*
X92842629Y-38929910D01*
X92889112Y-59714983D02*
X92935848Y-59729715D01*
X92935848Y-38899430D02*
X92889112Y-38914162D01*
X92935848Y-59729715D02*
X92983092Y-59743178D01*
X92983092Y-38885967D02*
X92935848Y-38899430D01*
X92983092Y-59743178D02*
X93030589Y-59755623D01*
X93030589Y-38873522D02*
X92983092Y-38885967D01*
X93030589Y-59755623D02*
X93078596Y-59766799D01*
X93078596Y-38862346D02*
X93030589Y-38873522D01*
X93078596Y-59766799D02*
X93126601Y-59776706D01*
X93126601Y-38852439D02*
X93078596Y-38862346D01*
X93126601Y-59776706D02*
X93174861Y-59785595D01*
X93174861Y-38843550D02*
X93126601Y-38852439D01*
X93174861Y-59785595D02*
X93223376Y-59793215D01*
X93223376Y-38835930D02*
X93174861Y-38843550D01*
X93223376Y-59793215D02*
X93272144Y-59799819D01*
X93272144Y-38829326D02*
X93223376Y-38835930D01*
X93272144Y-59799819D02*
X93320912Y-59805154D01*
X93320912Y-38823991D02*
X93272144Y-38829326D01*
X93320912Y-59805154D02*
X93369933Y-59809218D01*
X93369933Y-38819927D02*
X93320912Y-38823991D01*
X93369933Y-59809218D02*
X93418701Y-59812266D01*
X93418701Y-38816879D02*
X93369933Y-38819927D01*
X93418701Y-59812266D02*
X93467977Y-59814043D01*
X93467977Y-38815102D02*
X93418701Y-38816879D01*
X93467977Y-59814043D02*
X93517000Y-59814551D01*
X93517000Y-38814594D02*
X93467977Y-38815102D01*
X93517000Y-59814551D02*
X107233000Y-59814551D01*
X107233000Y-38814594D02*
X93517000Y-38814594D01*
X107233000Y-59814551D02*
X107282021Y-59814043D01*
X107282021Y-38815102D02*
X107233000Y-38814594D01*
X107282021Y-59814043D02*
X107331297Y-59812266D01*
X107331297Y-38816879D02*
X107282021Y-38815102D01*
X107331297Y-59812266D02*
X107380065Y-59809218D01*
X107380065Y-38819927D02*
X107331297Y-38816879D01*
X107380065Y-59809218D02*
X107429088Y-59805154D01*
X107429088Y-38823991D02*
X107380065Y-38819927D01*
X107429088Y-59805154D02*
X107477856Y-59799819D01*
X107477856Y-38829326D02*
X107429088Y-38823991D01*
X107477856Y-59799819D02*
X107526624Y-59793215D01*
X107526624Y-38835930D02*
X107477856Y-38829326D01*
X107526624Y-59793215D02*
X107575137Y-59785595D01*
X107575137Y-38843550D02*
X107526624Y-38835930D01*
X107575137Y-59785595D02*
X107623397Y-59776706D01*
X107623397Y-38852439D02*
X107575137Y-38843550D01*
X107623397Y-59776706D02*
X107671404Y-59766799D01*
X107671404Y-38862346D02*
X107623397Y-38852439D01*
X107671404Y-59766799D02*
X107719409Y-59755623D01*
X107719409Y-38873522D02*
X107671404Y-38862346D01*
X107719409Y-59755623D02*
X107766908Y-59743178D01*
X107766908Y-38885967D02*
X107719409Y-38873522D01*
X107766908Y-59743178D02*
X107814152Y-59729715D01*
X107814152Y-38899430D02*
X107766908Y-38885967D01*
X107814152Y-59729715D02*
X107860888Y-59714983D01*
X107860888Y-38914162D02*
X107814152Y-38899430D01*
X107860888Y-59714983D02*
X107907369Y-59699235D01*
X107907369Y-38929910D02*
X107860888Y-38914162D01*
X107907369Y-59699235D02*
X107953597Y-59682471D01*
X107953597Y-38946674D02*
X107907369Y-38929910D01*
X107953597Y-59682471D02*
X107999317Y-59664438D01*
X107999317Y-38964707D02*
X107953597Y-38946674D01*
X107999317Y-59664438D02*
X108044529Y-59645387D01*
X108044529Y-38983758D02*
X107999317Y-38964707D01*
X108044529Y-59645387D02*
X108089233Y-59625322D01*
X108089233Y-39003823D02*
X108044529Y-38983758D01*
X108089233Y-59625322D02*
X108133684Y-59603986D01*
X108133684Y-39025159D02*
X108089233Y-39003823D01*
X108133684Y-59603986D02*
X108177372Y-59581887D01*
X108177372Y-39047258D02*
X108133684Y-39025159D01*
X108177372Y-59581887D02*
X108220552Y-59558519D01*
X108220552Y-39070626D02*
X108177372Y-39047258D01*
X108220552Y-59558519D02*
X108263224Y-59534135D01*
X108263224Y-39095010D02*
X108220552Y-39070626D01*
X108263224Y-59534135D02*
X108305133Y-59508735D01*
X108305133Y-39120410D02*
X108263224Y-39095010D01*
X108305133Y-59508735D02*
X108346536Y-59482319D01*
X108346536Y-39146826D02*
X108305133Y-39120410D01*
X108346536Y-59482319D02*
X108387429Y-59454887D01*
X108387429Y-39174258D02*
X108346536Y-39146826D01*
X108387429Y-59454887D02*
X108427308Y-59426439D01*
X108427308Y-39202706D02*
X108387429Y-39174258D01*
X108427308Y-59426439D02*
X108466677Y-59397230D01*
X108466677Y-39231915D02*
X108427308Y-39202706D01*
X108466677Y-59397230D02*
X108505285Y-59366750D01*
X108505285Y-39262395D02*
X108466677Y-39231915D01*
X108505285Y-59366750D02*
X108543385Y-59335762D01*
X108543385Y-39293383D02*
X108505285Y-39262395D01*
X108543385Y-59335762D02*
X108580469Y-59303503D01*
X108580469Y-39325642D02*
X108543385Y-39293383D01*
X108580469Y-59303503D02*
X108616792Y-59270483D01*
X108616792Y-39358662D02*
X108580469Y-39325642D01*
X108616792Y-59270483D02*
X108652352Y-59236702D01*
X108652352Y-39392443D02*
X108616792Y-39358662D01*
X108652352Y-59236702D02*
X108687149Y-59201903D01*
X108687149Y-39427242D02*
X108652352Y-39392443D01*
X108687149Y-59201903D02*
X108720932Y-59166343D01*
X108720932Y-39462802D02*
X108687149Y-39427242D01*
X108720932Y-59166343D02*
X108753952Y-59130022D01*
X108753952Y-39499123D02*
X108720932Y-39462802D01*
X108753952Y-59130022D02*
X108786209Y-59092938D01*
X108786209Y-39536207D02*
X108753952Y-39499123D01*
X108786209Y-59092938D02*
X108817197Y-59054838D01*
X108817197Y-39574307D02*
X108786209Y-39536207D01*
X108817197Y-59054838D02*
X108847677Y-59016230D01*
X108847677Y-39612915D02*
X108817197Y-39574307D01*
X108847677Y-59016230D02*
X108876888Y-58976859D01*
X108876888Y-39652286D02*
X108847677Y-39612915D01*
X108876888Y-58976859D02*
X108905336Y-58936982D01*
X108905336Y-39692163D02*
X108876888Y-39652286D01*
X108905336Y-58936982D02*
X108932768Y-58896087D01*
X108932768Y-39733058D02*
X108905336Y-39692163D01*
X108932768Y-58896087D02*
X108959184Y-58854686D01*
X108959184Y-39774459D02*
X108932768Y-39733058D01*
X108959184Y-58854686D02*
X108984584Y-58812775D01*
X108984584Y-39816370D02*
X108959184Y-39774459D01*
X108984584Y-58812775D02*
X109008968Y-58770103D01*
X109008968Y-39859042D02*
X108984584Y-39816370D01*
X109008968Y-58770103D02*
X109032336Y-58726923D01*
X109032336Y-39902222D02*
X109008968Y-39859042D01*
X109032336Y-58726923D02*
X109054433Y-58683235D01*
X109054433Y-39945910D02*
X109032336Y-39902222D01*
X109054433Y-58683235D02*
X109075769Y-58638786D01*
X109075769Y-39990359D02*
X109054433Y-39945910D01*
X109075769Y-58638786D02*
X109095836Y-58594082D01*
X109095836Y-40035063D02*
X109075769Y-39990359D01*
X109095836Y-58594082D02*
X109114885Y-58548870D01*
X109114885Y-40080275D02*
X109095836Y-40035063D01*
X109114885Y-58548870D02*
X109132920Y-58503150D01*
X109132920Y-40125995D02*
X109114885Y-40080275D01*
X109132920Y-58503150D02*
X109149684Y-58456922D01*
X109149684Y-40172223D02*
X109132920Y-40125995D01*
X109149684Y-58456922D02*
X109165432Y-58410439D01*
X109165432Y-40218706D02*
X109149684Y-40172223D01*
X109165432Y-58410439D02*
X109180164Y-58363703D01*
X109180164Y-40265442D02*
X109165432Y-40218706D01*
X109180164Y-58363703D02*
X109193625Y-58316459D01*
X109193625Y-40312686D02*
X109180164Y-40265442D01*
X109193625Y-58316459D02*
X109206072Y-58268962D01*
X109206072Y-40360183D02*
X109193625Y-40312686D01*
X109206072Y-58268962D02*
X109217248Y-58220955D01*
X109217248Y-40408190D02*
X109206072Y-40360183D01*
X109217248Y-58220955D02*
X109227153Y-58172950D01*
X109227153Y-40456195D02*
X109217248Y-40408190D01*
X109227153Y-58172950D02*
X109236044Y-58124690D01*
X109236044Y-40504455D02*
X109227153Y-40456195D01*
X109236044Y-58124690D02*
X109243664Y-58076175D01*
X109243664Y-40552970D02*
X109236044Y-40504455D01*
X109243664Y-58076175D02*
X109250268Y-58027407D01*
X109250268Y-40601738D02*
X109243664Y-40552970D01*
X109250268Y-58027407D02*
X109255601Y-57978639D01*
X109255601Y-40650506D02*
X109250268Y-40601738D01*
X109255601Y-57978639D02*
X109259665Y-57929618D01*
X109259665Y-40699527D02*
X109255601Y-40650506D01*
X109259665Y-57929618D02*
X109262713Y-57880850D01*
X109262713Y-40748295D02*
X109259665Y-40699527D01*
X109262713Y-57880850D02*
X109264492Y-57831574D01*
X109264492Y-40797571D02*
X109262713Y-40748295D01*
X109264492Y-57831574D02*
X109265000Y-57782551D01*
X109265000Y-40846594D02*
X109264492Y-40797571D01*
X109275000Y-57782551D02*
X109275000Y-40846594D01*
%TO.C,S2*%
D12*
X136525000Y-57150000D02*
X149225000Y-57150000D01*
X136525000Y-69850000D02*
X136525000Y-57150000D01*
X149225000Y-57150000D02*
X149225000Y-69850000D01*
X149225000Y-69850000D02*
X136525000Y-69850000D01*
%TO.C,D5*%
X98480000Y-64196384D02*
X98480000Y-66006384D01*
X98480000Y-71816384D02*
X98480000Y-70006383D01*
X99480000Y-66506384D02*
X97480000Y-66506384D01*
X99480000Y-66606384D02*
X97480000Y-66606384D01*
X99480000Y-66706384D02*
X97480000Y-66706384D01*
X99480000Y-66006384D02*
X99480000Y-70006384D01*
X97480000Y-70006384D01*
X97480000Y-66006384D01*
X99480000Y-66006384D01*
%TO.C,S1*%
X117475000Y-57150000D02*
X130175000Y-57150000D01*
X117475000Y-69850000D02*
X117475000Y-57150000D01*
X130175000Y-57150000D02*
X130175000Y-69850000D01*
X130175000Y-69850000D02*
X117475000Y-69850000D01*
%TO.C,S5*%
X136525000Y-76200000D02*
X149225000Y-76200000D01*
X136525000Y-88900000D02*
X136525000Y-76200000D01*
X149225000Y-76200000D02*
X149225000Y-88900000D01*
X149225000Y-88900000D02*
X136525000Y-88900000D01*
%TO.C,D4*%
X101980000Y-64196384D02*
X101980000Y-66006384D01*
X101980000Y-71816384D02*
X101980000Y-70006383D01*
X102980000Y-66506384D02*
X100980000Y-66506384D01*
X102980000Y-66606384D02*
X100980000Y-66606384D01*
X102980000Y-66706384D02*
X100980000Y-66706384D01*
X102980000Y-66006384D02*
X102980000Y-70006384D01*
X100980000Y-70006384D01*
X100980000Y-66006384D01*
X102980000Y-66006384D01*
%TO.C,SW1*%
D11*
X156160000Y-58800000D02*
X157160000Y-57700000D01*
X156160000Y-69300000D02*
X156160000Y-58800000D01*
X157160000Y-57700000D02*
X168160000Y-57700000D01*
X159160000Y-63500000D02*
X165160000Y-63500000D01*
X162160000Y-60500000D02*
X162160000Y-66500000D01*
X168160000Y-57700000D02*
X168160000Y-69300000D01*
X168160000Y-69300000D02*
X156160000Y-69300000D01*
X165160000Y-63500000D02*
G75*
G02*
X159160000Y-63500000I-3000000J0D01*
G01*
X159160000Y-63500000D02*
G75*
G02*
X165160000Y-63500000I3000000J0D01*
G01*
%TO.C,S4*%
D12*
X117475000Y-76200000D02*
X130175000Y-76200000D01*
X117475000Y-88900000D02*
X117475000Y-76200000D01*
X130175000Y-76200000D02*
X130175000Y-88900000D01*
X130175000Y-88900000D02*
X117475000Y-88900000D01*
%TO.C,D8*%
X115650000Y-73820000D02*
X114850000Y-74620000D01*
X112850000Y-71420000D02*
X112850000Y-74620000D01*
X115650000Y-74620000D01*
X115650000Y-71420000D01*
X112850000Y-71420000D01*
%TO.C,D1*%
X108980000Y-64196384D02*
X108980000Y-66006384D01*
X108980000Y-71816384D02*
X108980000Y-70006383D01*
X109980000Y-66506384D02*
X107980000Y-66506384D01*
X109980000Y-66606384D02*
X107980000Y-66606384D01*
X109980000Y-66706384D02*
X107980000Y-66706384D01*
X109980000Y-66006384D02*
X109980000Y-70006384D01*
X107980000Y-70006384D01*
X107980000Y-66006384D01*
X109980000Y-66006384D01*
%TO.C,D2*%
X105480000Y-64196384D02*
X105480000Y-66006384D01*
X105480000Y-71816384D02*
X105480000Y-70006383D01*
X106480000Y-66506384D02*
X104480000Y-66506384D01*
X106480000Y-66606384D02*
X104480000Y-66606384D01*
X106480000Y-66706384D02*
X104480000Y-66706384D01*
X106480000Y-66006384D02*
X106480000Y-70006384D01*
X104480000Y-70006384D01*
X104480000Y-66006384D01*
X106480000Y-66006384D01*
%TD*%
M02*
