%TF.GenerationSoftware,KiCad,Pcbnew,10.0.5*%
%TF.CreationDate,2026-08-13T11:31:52+05:30*%
%TF.ProjectId,Pokeyboardy,506f6b65-7962-46f6-9172-64792e6b6963,rev?*%
%TF.SameCoordinates,Original*%
%TF.FileFunction,Soldermask,Bot*%
%TF.FilePolarity,Negative*%
%FSLAX46Y46*%
G04 Gerber Fmt 4.6, Leading zero omitted, Abs format (unit mm)*
G04 Created by KiCad (PCBNEW 10.0.5) date 2026-08-13 11:31:52*
%MOMM*%
%LPD*%
G01*
G04 APERTURE LIST*
G04 Aperture macros list*
%AMRoundRect*
0 Rectangle with rounded corners*
0 $1 Rounding radius*
0 $2 $3 $4 $5 $6 $7 $8 $9 X,Y pos of 4 corners*
0 Add a 4 corners polygon primitive as box body*
4,1,4,$2,$3,$4,$5,$6,$7,$8,$9,$2,$3,0*
0 Add four circle primitives for the rounded corners*
1,1,$1+$1,$2,$3*
1,1,$1+$1,$4,$5*
1,1,$1+$1,$6,$7*
1,1,$1+$1,$8,$9*
0 Add four rect primitives between the rounded corners*
20,1,$1+$1,$2,$3,$4,$5,0*
20,1,$1+$1,$4,$5,$6,$7,0*
20,1,$1+$1,$6,$7,$8,$9,0*
20,1,$1+$1,$8,$9,$2,$3,0*%
G04 Aperture macros list end*
%ADD10RoundRect,0.250000X-0.550000X0.550000X-0.550000X-0.550000X0.550000X-0.550000X0.550000X0.550000X0*%
%ADD11C,1.600000*%
%ADD12C,1.700000*%
%ADD13C,4.000000*%
%ADD14C,2.200000*%
%ADD15R,3.500000X1.700000*%
%ADD16O,3.600000X1.700000*%
%ADD17O,3.700000X1.700000*%
%ADD18R,2.000000X2.000000*%
%ADD19C,2.000000*%
%ADD20R,3.200000X2.000000*%
%ADD21R,1.700000X1.700000*%
%ADD22O,1.700000X1.700000*%
%ADD23RoundRect,0.205000X0.470000X0.205000X-0.470000X0.205000X-0.470000X-0.205000X0.470000X-0.205000X0*%
G04 APERTURE END LIST*
D10*
%TO.C,D3*%
X94980000Y-64196384D03*
D11*
X94980000Y-71816384D03*
%TD*%
D12*
%TO.C,S3*%
X156845000Y-82550000D03*
D13*
X161925000Y-82550000D03*
D12*
X167005000Y-82550000D03*
D14*
X164465000Y-77470000D03*
X158115000Y-80010000D03*
%TD*%
D10*
%TO.C,D6*%
X91477500Y-64196385D03*
D11*
X91477500Y-71816385D03*
%TD*%
D15*
%TO.C,U1*%
X91750000Y-41690000D03*
D16*
X91750000Y-44230000D03*
X91750000Y-46770000D03*
X91750000Y-49310000D03*
X91750000Y-51850000D03*
X91750000Y-54390000D03*
X91750000Y-56930000D03*
X109000000Y-56930000D03*
X109000000Y-54390000D03*
X109000000Y-51850000D03*
D17*
X109000000Y-49310000D03*
X109000000Y-46770000D03*
X109000000Y-44230000D03*
X109000000Y-41690000D03*
%TD*%
D12*
%TO.C,S2*%
X137795000Y-63500000D03*
D13*
X142875000Y-63500000D03*
D12*
X147955000Y-63500000D03*
D14*
X145415000Y-58420000D03*
X139065000Y-60960000D03*
%TD*%
D10*
%TO.C,D5*%
X98480000Y-64196384D03*
D11*
X98480000Y-71816384D03*
%TD*%
D12*
%TO.C,S1*%
X118745000Y-63500000D03*
D13*
X123825000Y-63500000D03*
D12*
X128905000Y-63500000D03*
D14*
X126365000Y-58420000D03*
X120015000Y-60960000D03*
%TD*%
D12*
%TO.C,S5*%
X137795000Y-82550000D03*
D13*
X142875000Y-82550000D03*
D12*
X147955000Y-82550000D03*
D14*
X145415000Y-77470000D03*
X139065000Y-80010000D03*
%TD*%
D10*
%TO.C,D4*%
X101980000Y-64196384D03*
D11*
X101980000Y-71816384D03*
%TD*%
D18*
%TO.C,SW1*%
X154660000Y-61000000D03*
D19*
X154660000Y-66000000D03*
X154660000Y-63500000D03*
D20*
X162160000Y-57900000D03*
X162160000Y-69100000D03*
D19*
X169160000Y-66000000D03*
X169160000Y-61000000D03*
%TD*%
D21*
%TO.C,J1*%
X132375000Y-48440000D03*
D22*
X132375000Y-45899999D03*
X132375000Y-43360000D03*
X132375000Y-40820000D03*
%TD*%
D12*
%TO.C,S4*%
X118745000Y-82550000D03*
D13*
X123825000Y-82550000D03*
D12*
X128905000Y-82550000D03*
D14*
X126365000Y-77470000D03*
X120015000Y-80010000D03*
%TD*%
D10*
%TO.C,D1*%
X108980000Y-64196384D03*
D11*
X108980000Y-71816384D03*
%TD*%
D10*
%TO.C,D2*%
X105480000Y-64196384D03*
D11*
X105480000Y-71816384D03*
%TD*%
D23*
%TO.C,D9*%
X145600000Y-73790000D03*
X145600000Y-72290000D03*
X140150000Y-72290000D03*
X140150000Y-73790000D03*
%TD*%
%TO.C,D10*%
X126550000Y-73775000D03*
X126550000Y-72275000D03*
X121100000Y-72275000D03*
X121100000Y-73775000D03*
%TD*%
M02*
