%TF.GenerationSoftware,KiCad,Pcbnew,10.0.5*%
%TF.CreationDate,2026-08-13T11:31:52+05:30*%
%TF.ProjectId,Pokeyboardy,506f6b65-7962-46f6-9172-64792e6b6963,rev?*%
%TF.SameCoordinates,Original*%
%TF.FileFunction,Profile,NP*%
%FSLAX46Y46*%
G04 Gerber Fmt 4.6, Leading zero omitted, Abs format (unit mm)*
G04 Created by KiCad (PCBNEW 10.0.5) date 2026-08-13 11:31:52*
%MOMM*%
%LPD*%
G01*
G04 APERTURE LIST*
%TA.AperFunction,Profile*%
%ADD10C,0.050000*%
%TD*%
%TA.AperFunction,Profile*%
%ADD11C,0.100000*%
%TD*%
%TA.AperFunction,Profile*%
%ADD12C,0.120000*%
%TD*%
G04 APERTURE END LIST*
D10*
X85200000Y-37290000D02*
X171450000Y-37290000D01*
X171450000Y-92070000D01*
X85200000Y-92070000D01*
X85200000Y-37290000D01*
X115330000Y-60550000D02*
G75*
G02*
X109330000Y-60550000I-3000000J0D01*
G01*
X109330000Y-60550000D02*
G75*
G02*
X115330000Y-60550000I3000000J0D01*
G01*
D11*
X163690025Y-73020000D02*
G75*
G02*
X159689975Y-73020000I-2000025J0D01*
G01*
X159689975Y-73020000D02*
G75*
G02*
X163690025Y-73020000I2000025J0D01*
G01*
X168375000Y-44630000D02*
G75*
G02*
X162375000Y-44630000I-3000000J0D01*
G01*
X162375000Y-44630000D02*
G75*
G02*
X168375000Y-44630000I3000000J0D01*
G01*
%TO.C,D8*%
D12*
X112750000Y-73020000D02*
X112750000Y-72119647D01*
X112750000Y-73020000D02*
X112750000Y-73920353D01*
X114250000Y-71319999D02*
X113549647Y-71320000D01*
X114250000Y-71319999D02*
X114950353Y-71320000D01*
X114250000Y-74720001D02*
X113549647Y-74720000D01*
X114250000Y-74720001D02*
X114950353Y-74720000D01*
X115750000Y-73020000D02*
X115750000Y-72119647D01*
X115750000Y-73020000D02*
X115750000Y-73920353D01*
X112706066Y-71963345D02*
G75*
G02*
X112749997Y-72119647I-255566J-156155D01*
G01*
X112706066Y-71963345D02*
G75*
G02*
X113393345Y-71276066I426774J260505D01*
G01*
X112750000Y-73920353D02*
G75*
G02*
X112706066Y-74076655I-299992J-3D01*
G01*
X113393345Y-74763934D02*
G75*
G02*
X112706066Y-74076655I-260504J426775D01*
G01*
X113393345Y-74763934D02*
G75*
G02*
X113549647Y-74720000I156299J-256058D01*
G01*
X113549647Y-71320000D02*
G75*
G02*
X113393344Y-71276068I103J300380D01*
G01*
X114950353Y-74720000D02*
G75*
G02*
X115106655Y-74763934I3J-299992D01*
G01*
X115106655Y-71276066D02*
G75*
G02*
X114950353Y-71320013I-156355J256166D01*
G01*
X115106655Y-71276066D02*
G75*
G02*
X115793934Y-71963345I260505J-426774D01*
G01*
X115750000Y-72119647D02*
G75*
G02*
X115793932Y-71963344I300380J-103D01*
G01*
X115793934Y-74076655D02*
G75*
G02*
X115106655Y-74763934I-426777J-260502D01*
G01*
X115793934Y-74076655D02*
G75*
G02*
X115750000Y-73920353I256058J156299D01*
G01*
%TO.C,D9*%
X141175000Y-73040000D02*
X141175000Y-72339647D01*
X141175000Y-73040000D02*
X141175000Y-73740353D01*
X142875000Y-71540000D02*
X141974647Y-71540000D01*
X142875000Y-71540000D02*
X143775353Y-71540000D01*
X142875000Y-74540000D02*
X141974647Y-74540000D01*
X142875000Y-74540000D02*
X143775353Y-74540000D01*
X144575000Y-73040000D02*
X144575000Y-72339647D01*
X144575000Y-73040000D02*
X144575000Y-73740353D01*
X141131066Y-72183345D02*
G75*
G02*
X141174976Y-72339647I-256066J-156255D01*
G01*
X141131066Y-72183345D02*
G75*
G02*
X141818345Y-71496066I426774J260505D01*
G01*
X141175000Y-73740353D02*
G75*
G02*
X141131065Y-73896654I-299680J-87D01*
G01*
X141818345Y-74583934D02*
G75*
G02*
X141131066Y-73896655I-260505J426774D01*
G01*
X141818345Y-74583934D02*
G75*
G02*
X141974647Y-74540024I156255J-256066D01*
G01*
X141974647Y-71540000D02*
G75*
G02*
X141818344Y-71496067I3J300020D01*
G01*
X143775353Y-74540000D02*
G75*
G02*
X143931655Y-74583934I3J-299992D01*
G01*
X143931655Y-71496066D02*
G75*
G02*
X143775353Y-71540000I-156299J256058D01*
G01*
X143931655Y-71496066D02*
G75*
G02*
X144618934Y-72183345I260503J-426776D01*
G01*
X144575000Y-72339647D02*
G75*
G02*
X144618934Y-72183345I299992J3D01*
G01*
X144618934Y-73896655D02*
G75*
G02*
X143931655Y-74583934I-426776J-260503D01*
G01*
X144618934Y-73896655D02*
G75*
G02*
X144575000Y-73740353I256058J156299D01*
G01*
%TO.C,D10*%
X122125000Y-73025000D02*
X122125000Y-72324647D01*
X122125000Y-73025000D02*
X122125000Y-73725353D01*
X123825000Y-71525000D02*
X122924647Y-71525000D01*
X123825000Y-71525000D02*
X124725353Y-71525000D01*
X123825000Y-74525000D02*
X122924647Y-74525000D01*
X123825000Y-74525000D02*
X124725353Y-74525000D01*
X125525000Y-73025000D02*
X125525000Y-72324647D01*
X125525000Y-73025000D02*
X125525000Y-73725353D01*
X122081066Y-72168345D02*
G75*
G02*
X122124976Y-72324647I-256066J-156255D01*
G01*
X122081066Y-72168345D02*
G75*
G02*
X122768345Y-71481066I426774J260505D01*
G01*
X122125000Y-73725353D02*
G75*
G02*
X122081065Y-73881654I-299680J-87D01*
G01*
X122768345Y-74568934D02*
G75*
G02*
X122081066Y-73881655I-260505J426774D01*
G01*
X122768345Y-74568934D02*
G75*
G02*
X122924647Y-74525024I156255J-256066D01*
G01*
X122924647Y-71525000D02*
G75*
G02*
X122768344Y-71481067I3J300020D01*
G01*
X124725353Y-74525000D02*
G75*
G02*
X124881655Y-74568934I3J-299992D01*
G01*
X124881655Y-71481066D02*
G75*
G02*
X124725353Y-71525000I-156299J256058D01*
G01*
X124881655Y-71481066D02*
G75*
G02*
X125568934Y-72168345I260503J-426776D01*
G01*
X125525000Y-72324647D02*
G75*
G02*
X125568934Y-72168345I299992J3D01*
G01*
X125568934Y-73881655D02*
G75*
G02*
X124881655Y-74568934I-426776J-260503D01*
G01*
X125568934Y-73881655D02*
G75*
G02*
X125525000Y-73725353I256058J156299D01*
G01*
%TD*%
M02*
