M48
; DRILL file KiCad 10.0.5 date 2026-08-13T11:32:00
; FORMAT={-:-/ absolute / metric / decimal}
; #@! TF.CreationDate,2026-08-13T11:32:00+05:30
; #@! TF.GenerationSoftware,Kicad,Pcbnew,10.0.5
; #@! TF.FileFunction,MixedPlating,1,2
FMAT,2
METRIC
; #@! TA.AperFunction,Plated,PTH,ViaDrill
T1C0.300
; #@! TA.AperFunction,Plated,PTH,ComponentDrill
T2C0.800
; #@! TA.AperFunction,Plated,PTH,ComponentDrill
T3C1.000
; #@! TA.AperFunction,Plated,PTH,ComponentDrill
T4C1.500
; #@! TA.AperFunction,NonPlated,NPTH,ComponentDrill
T5C1.700
; #@! TA.AperFunction,NonPlated,NPTH,ComponentDrill
T6C4.000
%
G90
G05
T1
X113.5Y-70.295
X113.5Y-75.745
X115.0Y-70.295
X121.1Y-72.275
X121.62Y-50.79
X125.45Y-39.14
X126.362Y-67.437
X126.362Y-70.52
X126.365Y-53.305
X126.55Y-73.775
X127.34Y-47.61
X127.43Y-50.79
X127.762Y-70.52
X128.39Y-72.19
X128.57Y-41.55
X145.6Y-73.78
X148.49Y-58.6
X149.04Y-55.43
X149.16Y-54.39
X150.6Y-48.2
X156.25Y-64.28
T2
X91.477Y-64.196
X91.477Y-71.816
X94.98Y-64.196
X94.98Y-71.816
X98.48Y-64.196
X98.48Y-71.816
X101.98Y-64.196
X101.98Y-71.816
X105.48Y-64.196
X105.48Y-71.816
X108.98Y-64.196
X108.98Y-71.816
T3
X92.75Y-41.69
X92.75Y-44.23
X92.75Y-46.77
X92.75Y-49.31
X92.75Y-51.85
X92.75Y-54.39
X92.75Y-56.93
X108.0Y-41.69
X108.0Y-44.23
X108.0Y-46.77
X108.0Y-49.31
X108.0Y-51.85
X108.0Y-54.39
X108.0Y-56.93
X132.375Y-40.82
X132.375Y-43.36
X132.375Y-45.9
X132.375Y-48.44
X154.66Y-61.0
X154.66Y-63.5
X154.66Y-66.0
X169.16Y-61.0
X169.16Y-66.0
T4
X120.015Y-60.96
X120.015Y-80.01
X126.365Y-58.42
X126.365Y-77.47
X139.065Y-60.96
X139.065Y-80.01
X145.415Y-58.42
X145.415Y-77.47
X158.115Y-80.01
X164.465Y-77.47
T5
X118.745Y-63.5
X118.745Y-82.55
X128.905Y-63.5
X128.905Y-82.55
X137.795Y-63.5
X137.795Y-82.55
X147.955Y-63.5
X147.955Y-82.55
X156.845Y-82.55
X167.005Y-82.55
T6
X123.825Y-63.5
X123.825Y-82.55
X142.875Y-63.5
X142.875Y-82.55
X161.925Y-82.55
T4
X161.51Y-57.9G85X162.81Y-57.9
G05
X161.51Y-69.1G85X162.81Y-69.1
G05
M30
